<?xml version="1.0" encoding="UTF-8"?>
<svg width="131px" height="107px" viewBox="0 0 131 107" version="1.1" xmlns="http://www.w3.org/2000/svg" xmlns:xlink="http://www.w3.org/1999/xlink">
    <!-- Generator: Sketch 46.2 (44496) - http://www.bohemiancoding.com/sketch -->
    <title>patterns</title>
    <desc>Created with Sketch.</desc>
    <defs></defs>
    <g id="Welcome" stroke="none" stroke-width="1" fill="none" fill-rule="evenodd">
        <g id="Desktop" transform="translate(-1069.000000, 0.000000)">
            <g id="patterns" transform="translate(1147.384891, 27.342081) rotate(230.000000) translate(-1147.384891, -27.342081) translate(1048.884891, -61.157919)">
                <g id="bg" fill="#FFFFFF">
                    <polygon id="Triangle-4" transform="translate(64.582618, 77.782830) rotate(40.000000) translate(-64.582618, -77.782830) " points="64.5826184 35.3940648 112.5699 120.171596 16.5953366 120.171596"></polygon>
                    <polygon id="Triangle-4" transform="translate(98.173716, 77.782830) rotate(100.000000) translate(-98.173716, -77.782830) " points="98.1737156 35.3940648 146.160997 120.171596 50.1864339 120.171596"></polygon>
                    <polygon id="Triangle-4" transform="translate(105.938000, 52.812218) rotate(300.000000) translate(-105.938000, -52.812218) " points="105.938 17.7636504 145.615624 87.8607863 66.2603758 87.8607863"></polygon>
                    <polygon id="Triangle-4" transform="translate(136.563541, 82.581559) rotate(340.000000) translate(-136.563541, -82.581559) " points="136.563541 40.192793 184.550823 124.970324 88.5762593 124.970324"></polygon>
                    <polygon id="Triangle-4" transform="translate(110.170536, 130.568840) rotate(261.000000) translate(-110.170536, -130.568840) " points="110.170536 96.177955 149.360149 164.959726 70.9809226 164.959726"></polygon>
                    <polygon id="Triangle-4" transform="translate(140.562481, 132.168416) rotate(-99.000000) translate(-140.562481, -132.168416) " points="140.562481 97.7775311 179.752095 166.559302 101.372868 166.559302"></polygon>
                </g>
                <g id="colored" stroke="#0080C5">
                    <polygon id="Triangle-4" fill="#FFFFFF" opacity="0.197973279" transform="translate(64.582618, 77.782830) rotate(40.000000) translate(-64.582618, -77.782830) " points="64.5826184 35.3940648 112.5699 120.171596 16.5953366 120.171596"></polygon>
                    <polygon id="Triangle-4" fill="#EBEBEB" opacity="0.307348279" transform="translate(98.173716, 77.782830) rotate(100.000000) translate(-98.173716, -77.782830) " points="98.1737156 35.3940648 146.160997 120.171596 50.1864339 120.171596"></polygon>
                    <polygon id="Triangle-4" fill="#E4F7FF" opacity="0.272644928" transform="translate(105.938000, 52.812218) rotate(300.000000) translate(-105.938000, -52.812218) " points="105.938 17.7636504 145.615624 87.8607863 66.2603758 87.8607863"></polygon>
                    <polygon id="Triangle-4" fill="#FFFFFA" opacity="0.213768116" transform="translate(136.563541, 82.581559) rotate(340.000000) translate(-136.563541, -82.581559) " points="136.563541 40.192793 184.550823 124.970324 88.5762593 124.970324"></polygon>
                    <polygon id="Triangle-4" fill="#FFFFFF" opacity="0.274116848" transform="translate(110.170536, 130.568840) rotate(261.000000) translate(-110.170536, -130.568840) " points="110.170536 96.177955 149.360149 164.959726 70.9809226 164.959726"></polygon>
                    <polygon id="Triangle-4" fill="#FFFFFF" opacity="0.217957428" transform="translate(140.562481, 132.168416) rotate(-99.000000) translate(-140.562481, -132.168416) " points="140.562481 97.7775311 179.752095 166.559302 101.372868 166.559302"></polygon>
                </g>
            </g>
        </g>
    </g>
</svg>