<?xml version="1.0" encoding="UTF-8"?>
<svg width="111px" height="61px" viewBox="0 0 111 61" version="1.1" xmlns="http://www.w3.org/2000/svg" xmlns:xlink="http://www.w3.org/1999/xlink">
    <!-- Generator: Sketch 46 (44423) - http://www.bohemiancoding.com/sketch -->
    <title>logo</title>
    <desc>Created with Sketch.</desc>
    <defs>
        <filter x="-11.2%" y="-13.9%" width="122.4%" height="127.8%" filterUnits="objectBoundingBox" id="filter-1">
            <feOffset dx="0" dy="-1" in="SourceAlpha" result="shadowOffsetOuter1"></feOffset>
            <feGaussianBlur stdDeviation="2" in="shadowOffsetOuter1" result="shadowBlurOuter1"></feGaussianBlur>
            <feColorMatrix values="0 0 0 0 0   0 0 0 0 0   0 0 0 0 0  0 0 0 0.5 0" type="matrix" in="shadowBlurOuter1" result="shadowMatrixOuter1"></feColorMatrix>
            <feMerge>
                <feMergeNode in="shadowMatrixOuter1"></feMergeNode>
                <feMergeNode in="SourceGraphic"></feMergeNode>
            </feMerge>
        </filter>
        <filter x="-25.9%" y="-14.7%" width="151.9%" height="141.2%" filterUnits="objectBoundingBox" id="filter-2">
            <feOffset dx="0" dy="2" in="SourceAlpha" result="shadowOffsetOuter1"></feOffset>
            <feGaussianBlur stdDeviation="2" in="shadowOffsetOuter1" result="shadowBlurOuter1"></feGaussianBlur>
            <feColorMatrix values="0 0 0 0 0   0 0 0 0 0   0 0 0 0 0  0 0 0 0.5 0" type="matrix" in="shadowBlurOuter1" result="shadowMatrixOuter1"></feColorMatrix>
            <feMerge>
                <feMergeNode in="shadowMatrixOuter1"></feMergeNode>
                <feMergeNode in="SourceGraphic"></feMergeNode>
            </feMerge>
        </filter>
    </defs>
    <g id="Welcome" stroke="none" stroke-width="1" fill="none" fill-rule="evenodd">
        <g id="Mobile-Portrait-Copy" transform="translate(-7.000000, 0.000000)">
            <g id="header">
                <g id="logo" transform="translate(6.000000, 3.000000)">
                    <g id="owl-rtm-full-belly" filter="url(#filter-1)" transform="translate(60.000000, 2.000000)">
                        <g id="Group">
                            <g id="leaves__x26__twig" transform="translate(0.000000, 49.971429)"></g>
                            <g id="owl" transform="translate(9.076923, 0.000000)">
                                <g id="feather" transform="translate(0.000000, 19.171429)" fill-rule="nonzero">
                                    <g id="Group" transform="translate(0.000000, -0.000000)">
                                        <path d="M9.18584615,16.5248286 C6.63069231,20.9556286 3.68825641,24.7761714 0.750358974,26.9855143 C12.3884872,24.6459429 19.9556154,11.5413143 15.8679744,0.405257143 C14.5336667,5.57048571 12.1176923,11.4444 9.18584615,16.5248286 Z" id="Shape" fill="#918993"></path>
                                        <path d="M9.18584615,16.5248286 C6.63069231,20.9556286 3.68825641,24.7761714 0.750358974,26.9855143 C12.3884872,24.6459429 19.9556154,11.5413143 15.8679744,0.405257143 C14.5336667,5.57048571 12.1176923,11.4444 9.18584615,16.5248286 Z" id="Shape" fill="#000000" opacity="0.3"></path>
                                    </g>
                                    <g id="Group" transform="translate(4.025641, 3.542857)">
                                        <path d="M8.25997436,15.2216 C5.90753846,19.2995714 3.20110256,22.8142286 0.497692308,24.8448857 C11.2039231,22.6915714 18.1659231,10.6363429 14.4050513,0.395228571 C13.1796667,5.14251429 10.9558205,10.5485143 8.25997436,15.2216 Z" id="Shape" fill="#6D616F"></path>
                                        <path d="M8.25997436,15.2216 C5.90753846,19.2995714 3.20110256,22.8142286 0.497692308,24.8448857 C11.2039231,22.6915714 18.1659231,10.6363429 14.4050513,0.395228571 C13.1796667,5.14251429 10.9558205,10.5485143 8.25997436,15.2216 Z" id="Shape" fill="#000000" opacity="0.3"></path>
                                    </g>
                                    <g id="Group" transform="translate(22.179487, -0.000000)">
                                        <path d="M8.35225641,16.7444 C5.22525641,11.5504 2.62471795,5.5084 1.19964103,0.276542857 C-3.09828205,11.6957714 4.93479487,25.2501429 17.0782051,27.1369429 C14.0692051,24.9866571 11.0223846,21.1782286 8.35225641,16.7444 Z" id="Shape" fill="#918993"></path>
                                        <path d="M8.35225641,16.7444 C5.22525641,11.5504 2.62471795,5.5084 1.19964103,0.276542857 C-3.09828205,11.6957714 4.93479487,25.2501429 17.0782051,27.1369429 C14.0692051,24.9866571 11.0223846,21.1782286 8.35225641,16.7444 Z" id="Shape" fill="#000000" opacity="0.3"></path>
                                    </g>
                                    <g id="Group" transform="translate(19.666667, 3.542857)">
                                        <path d="M7.75774359,15.4139143 C4.88187179,10.6348286 2.48858974,5.0774 1.17848718,0.265 C-2.77451282,10.7711143 4.61410256,23.2397429 15.7832564,24.9751143 C13.0163077,22.9944286 10.2130513,19.4918857 7.75774359,15.4139143 Z" id="Shape" fill="#6D616F"></path>
                                        <path d="M7.75774359,15.4139143 C4.88187179,10.6348286 2.48858974,5.0774 1.17848718,0.265 C-2.77451282,10.7711143 4.61410256,23.2397429 15.7832564,24.9751143 C13.0163077,22.9944286 10.2130513,19.4918857 7.75774359,15.4139143 Z" id="Shape" fill="#000000" opacity="0.3"></path>
                                    </g>
                                    <g id="Group" transform="translate(16.641026, 0.514286)">
                                        <path d="M7.74715385,17.9246 C5.28882051,12.3792857 3.45830769,6.06168571 2.69584615,0.693542857 C-2.98782051,11.4919143 3.29794872,25.9397143 15.1130769,29.3226286 C12.3945385,26.8119429 9.8454359,22.6537143 7.74715385,17.9246 Z" id="Shape" fill="#918993"></path>
                                        <path d="M7.74715385,17.9246 C5.28882051,12.3792857 3.45830769,6.06168571 2.69584615,0.693542857 C-2.98782051,11.4919143 3.29794872,25.9397143 15.1130769,29.3226286 C12.3945385,26.8119429 9.8454359,22.6537143 7.74715385,17.9246 Z" id="Shape" fill="#000000" opacity="0.3"></path>
                                    </g>
                                    <g id="Group" transform="translate(14.615385, 4.542857)">
                                        <path d="M6.65638462,15.9569714 C4.39623077,10.8583714 2.71246154,5.04351429 2.01202564,0.106942857 C-3.21628205,10.0391429 2.56571795,23.3300286 13.4353333,26.4418857 C10.9331282,24.1356286 8.58674359,20.3075143 6.65638462,15.9569714 Z" id="Shape" fill="#6D616F"></path>
                                        <path d="M6.65638462,15.9569714 C4.39623077,10.8583714 2.71246154,5.04351429 2.01202564,0.106942857 C-3.21628205,10.0391429 2.56571795,23.3300286 13.4353333,26.4418857 C10.9331282,24.1356286 8.58674359,20.3075143 6.65638462,15.9569714 Z" id="Shape" fill="#000000" opacity="0.3"></path>
                                    </g>
                                    <g id="Group" transform="translate(7.564103, 0.514286)">
                                        <path d="M7.65033333,17.9246 C10.1086667,12.3792857 11.9391795,6.06168571 12.7001282,0.693542857 C18.3853077,11.4919143 12.0980256,25.9397143 0.284410256,29.3226286 C2.99992308,26.8119429 5.55053846,22.6537143 7.65033333,17.9246 Z" id="Shape" fill="#918993"></path>
                                        <path d="M7.65033333,17.9246 C10.1086667,12.3792857 11.9391795,6.06168571 12.7001282,0.693542857 C18.3853077,11.4919143 12.0980256,25.9397143 0.284410256,29.3226286 C2.99992308,26.8119429 5.55053846,22.6537143 7.65033333,17.9246 Z" id="Shape" fill="#000000" opacity="0.3"></path>
                                    </g>
                                    <g id="Group" transform="translate(10.589744, 4.542857)">
                                        <path d="M7.73958974,15.9569714 C9.99974359,10.8583714 11.6835128,5.04351429 12.3854615,0.106942857 C17.6137692,10.0391429 11.8317692,23.3300286 0.962153846,26.4418857 C3.46284615,24.1356286 5.80923077,20.3075143 7.73958974,15.9569714 Z" id="Shape" fill="#6D616F"></path>
                                        <path d="M7.73958974,15.9569714 C9.99974359,10.8583714 11.6835128,5.04351429 12.3854615,0.106942857 C17.6137692,10.0391429 11.8317692,23.3300286 0.962153846,26.4418857 C3.46284615,24.1356286 5.80923077,20.3075143 7.73958974,15.9569714 Z" id="Shape" fill="#000000" opacity="0.3"></path>
                                    </g>
                                </g>
                                <g id="legs__x26__feeds" transform="translate(15.128205, 43.914286)">
                                    <g id="Group" transform="translate(1.000000, 0.000000)">
                                        <g id="legs_2_" transform="translate(-0.000000, 0.000000)" fill="#A6A6A8">
                                            <polygon id="Shape" points="2.49310256 6.5084 0.291948718 6.5084 0.291948718 0.796514286 2.49310256 2.72268571"></polygon>
                                        </g>
                                        <g id="legs_1_" transform="translate(4.538462, 0.000000)" fill="#B6B0B7">
                                            <polygon id="Shape" points="0.322205128 6.5084 2.52184615 6.5084 2.52184615 0.796514286 0.322205128 2.72268571"></polygon>
                                        </g>
                                    </g>
                                    <g id="Group" transform="translate(1.000000, 0.000000)" fill="#B6B0B7" opacity="0.6">
                                        <polygon id="Shape" points="0.291948718 5.13948571 2.49310256 5.13948571 2.49310256 2.26082857 0.291948718 0.796514286"></polygon>
                                        <polygon id="Shape" points="4.86066667 2.26082857 4.86066667 5.13948571 7.06030769 5.13948571 7.06030769 0.796514286"></polygon>
                                    </g>
                                    <g id="Group" transform="translate(0.000000, 5.542857)" fill="#BDA333">
                                        <polygon id="Shape" points="0 0.323485714 0 2.71908571 0.939461538 3.29602857 1.84261538 2.71908571 1.84261538 0.323485714 0.939461538 0.323485714"></polygon>
                                        <polygon id="Shape" points="2.28435897 0.323485714 2.28435897 2.71908571 3.22382051 3.29602857 4.12546154 2.71908571 4.12546154 0.323485714 3.22382051 0.323485714"></polygon>
                                    </g>
                                    <g id="Group" transform="translate(4.538462, 5.542857)" fill="#BDA333">
                                        <polygon id="Shape" points="4.81379487 0.323485714 4.81379487 2.71908571 3.87433333 3.29602857 2.97117949 2.71908571 2.97117949 0.323485714 3.87433333 0.323485714"></polygon>
                                        <polygon id="Shape" points="2.5294359 0.323485714 2.5294359 2.71908571 1.58997436 3.29602857 0.688333333 2.71908571 0.688333333 0.323485714 1.58997436 0.323485714"></polygon>
                                    </g>
                                </g>
                                <g id="wings" transform="translate(3.025641, 18.171429)" fill-rule="nonzero">
                                    <g id="Group" transform="translate(24.205128, 0.000000)">
                                        <path d="M3.43561538,2.0458 C2.21325641,1.17357143 1.26017949,0.866171429 0.505282051,0.999428571 C2.85317949,4.22031429 3.85012821,8.4164 3.85012821,11.2511429 C3.85012821,14.3857143 2.7805641,19.3813429 0.202717949,23.4002571 C9.3734359,20.0446 12.8181282,8.75862857 3.43561538,2.0458 Z" id="Shape" fill="#6D616F"></path>
                                        <path d="M3.43561538,2.0458 C2.21325641,1.17357143 1.26017949,0.866171429 0.505282051,0.999428571 C2.85317949,4.22031429 3.85012821,8.4164 3.85012821,11.2511429 C3.85012821,14.3857143 2.7805641,19.3813429 0.202717949,23.4002571 C9.3734359,20.0446 12.8181282,8.75862857 3.43561538,2.0458 Z" id="Shape" fill="#000000" opacity="0.3"></path>
                                    </g>
                                    <g id="Group">
                                        <path d="M8.85,0.997914286 C8.09661538,0.864657143 7.139,1.16902857 5.91815385,2.04428571 C-3.56571795,8.82828571 0.0741282051,20.2929429 9.4475641,23.5077714 C6.7184359,19.4298 5.50364103,14.3296857 5.50364103,11.2481143 C5.50212821,8.15594286 6.51874359,4.10068571 8.85,0.997914286 Z" id="Shape" fill="#6D616F"></path>
                                        <path d="M8.85,0.997914286 C8.09661538,0.864657143 7.139,1.16902857 5.91815385,2.04428571 C-3.56571795,8.82828571 0.0741282051,20.2929429 9.4475641,23.5077714 C6.7184359,19.4298 5.50364103,14.3296857 5.50364103,11.2481143 C5.50212821,8.15594286 6.51874359,4.10068571 8.85,0.997914286 Z" id="Shape" fill="#000000" opacity="0.3"></path>
                                    </g>
                                </g>
                                <g id="body" filter="url(#filter-2)" transform="translate(6.051282, 15.142857)" fill-rule="nonzero">
                                    <g id="Group">
                                        <path d="M23.288359,4.85177143 C21.2369744,2.1836 18.2067949,0.181714286 13.9739231,0.181714286 C9.53833333,0.181714286 6.35687179,2.15785714 4.22228205,4.85177143 C1.7624359,7.95454286 0.689846154,12.0098 0.689846154,15.105 C0.689846154,16.1604571 0.947025641,17.4597143 1.39784615,18.8695143 C2.25864103,21.5664571 3.83348718,24.6843714 5.72451282,27.3601143 C7.33869231,29.6466857 9.18130769,31.6137429 11.0012308,32.7222 C12.0148205,33.3400286 13.0193333,33.6928571 13.9739231,33.6868 C14.9512051,33.6837714 15.972359,33.3021714 16.9950256,32.648 C18.7741026,31.5092571 20.5531795,29.5391714 22.0992821,27.2541143 C23.8723077,24.6344 25.3336923,21.6028 26.1400256,18.9406857 C26.5711795,17.5157429 26.8192821,16.1968 26.8192821,15.105 C26.8192821,12.2702571 25.766359,8.07265714 23.288359,4.85177143 Z" id="Shape" fill="#C5C0C5"></path>
                                        <path d="M23.288359,4.85177143 C21.2369744,2.1836 18.2067949,0.181714286 13.9739231,0.181714286 C9.53833333,0.181714286 6.35687179,2.15785714 4.22228205,4.85177143 C1.7624359,7.95454286 0.689846154,12.0098 0.689846154,15.105 C0.689846154,16.1604571 0.947025641,17.4597143 1.39784615,18.8695143 C2.25864103,21.5664571 3.83348718,24.6843714 5.72451282,27.3601143 C7.33869231,29.6466857 9.18130769,31.6137429 11.0012308,32.7222 C12.0148205,33.3400286 13.0193333,33.6928571 13.9739231,33.6868 C14.9512051,33.6837714 15.972359,33.3021714 16.9950256,32.648 C18.7741026,31.5092571 20.5531795,29.5391714 22.0992821,27.2541143 C23.8723077,24.6344 25.3336923,21.6028 26.1400256,18.9406857 C26.5711795,17.5157429 26.8192821,16.1968 26.8192821,15.105 C26.8192821,12.2702571 25.766359,8.07265714 23.288359,4.85177143 Z" id="Shape" fill="#000000" opacity="0.3"></path>
                                    </g>
                                    <path d="M21.2808462,7.39577143 C19.6606154,5.2894 17.2688462,3.71 13.9270256,3.71 C10.4248462,3.71 7.91205128,5.2682 6.22828205,7.39577143 C4.28430769,9.84437143 3.43864103,13.0470857 3.43864103,15.4911429 C3.43864103,16.3255143 3.64287179,17.3522 3.99687179,18.4636857 C4.67612821,20.5927714 5.91966667,23.0534857 7.41282051,25.1689429 C8.68964103,26.9724571 10.1434615,28.5261143 11.5791282,29.4013714 C12.3794103,29.8889714 13.173641,30.1676 13.9270256,30.1645714 C14.6985641,30.1585143 15.5048974,29.8602 16.3112308,29.3423143 C17.7151282,28.4428286 19.1190256,26.8876571 20.3398718,25.0841429 C21.7407436,23.0171429 22.8935128,20.6245714 23.5304103,18.5212286 C23.8723077,17.3976286 24.0659487,16.3558 24.0659487,15.4926571 C24.0674615,13.2515143 23.2369231,9.93825714 21.2808462,7.39577143 Z" id="Shape" fill="#0080C4"></path>
                                </g>
                                <g id="head" transform="translate(4.538462, 0.000000)" fill-rule="nonzero">
                                    <g id="face">
                                        <g id="Group">
                                            <path d="M30.224641,12.8048 C30.224641,19.8765143 23.616641,23.5441143 15.4640513,23.5441143 C7.31146154,23.5441143 0.701948718,19.8765143 0.701948718,12.8048 C0.703461538,5.73157143 7.31297436,0 15.4655641,0 C23.6181538,0 30.224641,5.73157143 30.224641,12.8048 Z" id="Shape" fill="#C5C0C5"></path>
                                            <path d="M30.224641,12.8048 C30.224641,19.8765143 23.616641,23.5441143 15.4640513,23.5441143 C7.31146154,23.5441143 0.701948718,19.8765143 0.701948718,12.8048 C0.703461538,5.73157143 7.31297436,0 15.4655641,0 C23.6181538,0 30.224641,5.73157143 30.224641,12.8048 Z" id="Shape" fill="#000000" opacity="0.3"></path>
                                        </g>
                                        <path d="M28.4334615,11.4298286 C28.4334615,7.33671429 25.1082821,4.00831429 21.020641,4.00831429 C18.8542821,4.00831429 16.8482821,4.94565714 15.4655641,6.50991429 C14.0828462,4.94565714 12.0768462,4.00831429 9.91048718,4.00831429 C5.82284615,4.00831429 2.49766667,7.33671429 2.49766667,11.4298286 C2.49766667,13.4317143 3.81382051,18.1199429 6.72146154,20.9622571 C9.16920513,22.1282571 12.1918205,22.7188286 15.4655641,22.7188286 C18.7483846,22.7188286 21.7800769,22.1237143 24.2308462,20.9501429 C27.2822051,18.126 28.4334615,13.4256571 28.4334615,11.4298286 Z" id="Shape" fill="#DAD7DB"></path>
                                        <path d="M21.020641,5.38328571 C18.5275128,5.38328571 16.3883846,6.89757143 15.4655641,9.05845714 C14.5442564,6.89757143 12.4051282,5.38328571 9.91048718,5.38328571 C6.57623077,5.38328571 3.87282051,8.09082857 3.87282051,11.4298286 C3.87282051,14.7658 6.57623077,17.4718286 9.91048718,17.4718286 C11.1812564,17.4718286 12.3597436,17.0781143 13.334,16.4072857 C13.6985897,17.4627429 14.0389744,17.8125429 14.3279231,18.5212286 L16.6032051,18.5212286 C16.8921538,17.8110286 17.2325385,17.4627429 17.5971282,16.4072857 C18.5713846,17.0781143 19.748359,17.4718286 21.020641,17.4718286 C24.3548974,17.4718286 27.0583077,14.7658 27.0583077,11.4298286 C27.0583077,8.09082857 24.3548974,5.38328571 21.020641,5.38328571 Z" id="Shape" fill="#B6B0B7"></path>
                                        <polygon id="beak" fill="#918993" points="15.5275897 17.9806286 14.235641 18.3743429 15.5275897 20.3111143 16.6939744 18.3743429"></polygon>
                                    </g>
                                    <g id="eye_1_" transform="translate(16.128205, 6.057143)">
                                        <g id="Group" transform="translate(0.000000, 0.000000)">
                                            <ellipse id="Oval" fill="#706870" cx="4.97261538" cy="5.37268571" rx="4.69579487" ry="4.70034286"></ellipse>
                                            <g transform="translate(0.000000, 0.000000)" id="Shape" fill="#483A4B">
                                                <path d="M7.19041026,5.98142857 C7.19041026,5.98142857 6.9574359,5.90722857 7.00584615,5.8194 C7.03610256,5.73005714 7.66241026,5.77548571 8.25241026,5.85725714 C8.73046154,5.92842857 9.13741026,6.00565714 9.2735641,5.99354286 C9.28264103,6.06471429 9.34012821,6.13285714 9.42333333,6.148 C9.51410256,6.16314286 9.59579487,6.10408571 9.60487179,6.00868571 C9.61546154,5.91631429 9.54738462,5.83757143 9.45358974,5.82848571 C9.37038462,5.8194 9.29928205,5.86634286 9.27961538,5.93751429 C9.148,5.88754286 8.73802564,5.85422857 8.25694872,5.79214286 C7.66997436,5.71188571 7.0315641,5.58468571 7.03610256,5.4908 C7.04215385,5.39388571 7.29025641,5.3848 7.28874359,5.38177143 C7.28874359,5.37874286 6.98164103,5.34391429 6.7804359,5.43174286 C6.58074359,5.52108571 6.45215385,5.56802857 6.27515385,5.5438 L6.17228205,5.52865714 C6.15564103,5.4908 6.04823077,5.45142857 5.903,5.43931429 C5.89392308,5.4802 5.8954359,5.51957143 5.90753846,5.56348571 C6.04823077,5.59074286 6.15564103,5.58468571 6.17228205,5.54834286 L6.27515385,5.56348571 C6.43702564,5.58468571 6.611,5.67857143 6.729,5.80274286 C6.86969231,5.93448571 7.18889744,5.98748571 7.19041026,5.98142857 Z"></path>
                                                <path d="M6.94684615,6.55837143 C6.94684615,6.55837143 6.74110256,6.42208571 6.79707692,6.3388 C6.85153846,6.2646 7.46725641,6.49022857 8.01035897,6.72645714 C8.45361538,6.92482857 8.82123077,7.10805714 8.95889744,7.13531429 C8.93923077,7.20345714 8.971,7.28068571 9.04664103,7.31551429 C9.12984615,7.3564 9.23423077,7.3246 9.27810256,7.24434286 C9.32197436,7.16105714 9.26146154,7.05808571 9.17825641,7.02477143 C9.09958974,6.99448571 9.02848718,7.02477143 8.98764103,7.08382857 C8.88023077,7.00357143 8.48992308,6.85971429 8.04515385,6.67042857 C7.5035641,6.4342 6.91507692,6.13437143 6.92869231,6.04351429 C6.94533333,5.9466 7.18435897,6.00565714 7.18435897,6.00565714 C7.18587179,5.9996 6.89087179,5.88148571 6.69117949,5.91631429 C6.49148718,5.94811429 6.37348718,5.96628571 6.2055641,5.89208571 L6.11025641,5.8512 C6.09966667,5.80728571 5.99376923,5.73914286 5.85912821,5.68917143 C5.86820513,5.73611429 5.83492308,5.7664 5.80920513,5.79517143 C5.93930769,5.86028571 6.05579487,5.88905714 6.09512821,5.86634286 L6.1904359,5.91025714 C6.35230769,5.98142857 6.42794872,6.08591429 6.54292308,6.254 C6.65789744,6.42814286 6.94533333,6.5614 6.94684615,6.55837143 Z"></path>
                                                <path d="M6.55653846,7.05202857 C6.55048718,7.04597143 6.41130769,6.88394286 6.47484615,6.80671429 C6.53535897,6.73554286 7.06182051,7.11411429 7.52020513,7.48965714 C7.89235897,7.79705714 8.19946154,8.07568571 8.322,8.13777143 C8.29023077,8.20288571 8.30233333,8.2892 8.36435897,8.3422 C8.43394872,8.40428571 8.53833333,8.3952 8.59582051,8.32402857 C8.65482051,8.25285714 8.64120513,8.14988571 8.56707692,8.09385714 C8.50202564,8.04691429 8.41276923,8.04994286 8.35679487,8.09385714 C8.2705641,7.98482857 7.93774359,7.74254286 7.55953846,7.43665714 C7.10115385,7.06414286 6.62612821,6.62651429 6.68512821,6.55534286 C6.72748718,6.46297143 6.93020513,6.57654286 6.93323077,6.57957143 C6.93625641,6.57654286 6.6775641,6.37514286 6.48997436,6.36605714 C6.28725641,6.34182857 6.13294872,6.30397143 5.99830769,6.19191429 L5.91661538,6.1268 C5.92720513,6.08894286 5.85761538,6.00262857 5.74112821,5.91934286 L5.66397436,6.01171429 C5.76987179,6.10862857 5.86820513,6.16011429 5.90602564,6.14194286 L5.98620513,6.21008571 C6.12538462,6.32214286 6.18287179,6.45237143 6.26153846,6.66285714 C6.30389744,6.84305714 6.55351282,7.05505714 6.55653846,7.05202857 Z"></path>
                                                <path d="M6.03764103,7.41091429 C6.03764103,7.41091429 5.93325641,7.18982857 6.02705128,7.15348571 C6.11933333,7.12622857 6.52628205,7.63502857 6.86364103,8.11505714 C7.14048718,8.5118 7.36135897,8.86311429 7.46271795,8.95548571 C7.42035897,9.01757143 7.40220513,9.09177143 7.44758974,9.16294286 C7.49902564,9.24017143 7.60794872,9.27197143 7.67451282,9.20685714 C7.74712821,9.1478 7.75923077,9.0418 7.70174359,8.9676 C7.65182051,8.90248571 7.57012821,8.88431429 7.50658974,8.91762857 C7.45212821,8.79042857 7.19646154,8.46485714 6.9135641,8.07114286 C6.57166667,7.5896 6.22674359,7.02931429 6.29179487,6.96571429 C6.36289744,6.89454286 6.53687179,7.06868571 6.53687179,7.06565714 C6.54141026,7.06565714 6.35382051,6.81125714 6.15715385,6.731 C5.96502564,6.65074286 5.84702564,6.59774286 5.74264103,6.45237143 L5.68212821,6.36605714 C5.69725641,6.32214286 5.64884615,6.21462857 5.55807692,6.09954286 C5.52630769,6.12377143 5.51269231,6.1798 5.46428205,6.17677143 C5.53841026,6.29488571 5.63371795,6.39634286 5.67153846,6.3812 L5.73053846,6.46751429 C5.83946154,6.62651429 5.84853846,6.74917143 5.85458974,6.94602857 C5.85610256,7.14742857 6.03461538,7.41394286 6.03764103,7.41091429 Z"></path>
                                                <path d="M5.45823077,7.64108571 C5.45823077,7.64108571 5.41889744,7.39577143 5.51117949,7.37154286 C5.6004359,7.35034286 5.85458974,7.95151429 6.05125641,8.50725714 C6.20858974,8.96608571 6.32810256,9.36131429 6.40071795,9.48094286 C6.33869231,9.51577143 6.30541026,9.593 6.32961538,9.67325714 C6.35684615,9.7626 6.45064103,9.81257143 6.53989744,9.78531429 C6.62915385,9.75502857 6.67151282,9.66417143 6.63520513,9.57785714 C6.6034359,9.50062857 6.52779487,9.45671429 6.45517949,9.46277143 C6.43853846,9.32648571 6.27969231,8.94488571 6.11328205,8.48908571 C5.91207692,7.92425714 5.74264103,7.32914286 5.81828205,7.27311429 C5.89694872,7.208 6.01797436,7.42151429 6.01797436,7.42151429 C6.02251282,7.41848571 5.90602564,7.11714286 5.74717949,7.00508571 C5.59741026,6.9112 5.47941026,6.77491429 5.42192308,6.6144 L5.38712821,6.51748571 C5.41889744,6.49022857 5.40528205,6.39331429 5.34628205,6.25097143 C5.30694872,6.25702857 5.26458974,6.254 5.23130769,6.27217143 C5.27064103,6.41148571 5.32812821,6.51142857 5.37048718,6.52051429 L5.40376923,6.61742857 C5.46276923,6.78551429 5.44310256,6.91877143 5.40074359,7.13228571 C5.35535897,7.3458 5.45369231,7.64108571 5.45823077,7.64108571 Z"></path>
                                                <path d="M4.82738462,7.66682857 C4.82738462,7.66682857 4.85310256,7.42454286 4.9514359,7.45331429 C5.04523077,7.4624 5.12692308,8.08628571 5.16776923,8.6814 C5.19651282,9.16597143 5.2025641,9.58088571 5.24189744,9.71111429 C5.17230769,9.73534286 5.11935897,9.805 5.12238462,9.88828571 C5.12541026,9.98065714 5.20105128,10.0503143 5.29333333,10.0397143 C5.38561538,10.0306286 5.45066667,9.94734286 5.44158974,9.85648571 C5.431,9.7732 5.37048718,9.71414286 5.29787179,9.70505714 C5.31905128,9.56877143 5.26912821,9.1584 5.23282051,8.67534286 C5.19348718,8.08325714 5.1874359,7.43362857 5.27820513,7.41848571 C5.37653846,7.40334286 5.43553846,7.64562857 5.43553846,7.64562857 C5.44007692,7.6426 5.41284615,7.33217143 5.28274359,7.155 C5.15869231,6.97782857 5.08607692,6.86274286 5.07246154,6.68254286 L5.06641026,6.57957143 C5.10271795,6.55534286 5.11633333,6.44328571 5.09817949,6.29791429 C5.05733333,6.29791429 5.01648718,6.307 4.97715385,6.32517143 C4.98017949,6.47054286 5.00892308,6.57351429 5.04674359,6.5826 L5.05279487,6.68557143 C5.06489744,6.85062857 5.00892308,7.03688571 4.90907692,7.18225714 C4.80771795,7.34277143 4.82284615,7.66682857 4.82738462,7.66682857 Z"></path>
                                                <path d="M4.21166667,7.54568571 C4.21166667,7.54568571 4.30394872,7.31551429 4.39320513,7.3564 C4.47641026,7.39425714 4.38110256,8.04842857 4.26158974,8.62537143 C4.16023077,9.10085714 4.05584615,9.4976 4.05584615,9.63994286 C3.98474359,9.63388571 3.91666667,9.68082857 3.89851282,9.76108571 C3.87430769,9.85042857 3.92876923,9.94734286 4.01651282,9.9746 C4.10879487,9.98671429 4.19351282,9.91857143 4.21015385,9.8262 C4.22376923,9.74291429 4.17838462,9.67477143 4.11182051,9.65508571 C4.16930769,9.52485714 4.23133333,9.11751429 4.32664103,8.64051429 C4.44615385,8.06357143 4.61710256,7.42757143 4.71089744,7.42151429 C4.81074359,7.41848571 4.80469231,7.6638 4.80469231,7.6638 C4.80923077,7.6638 4.86520513,7.35337143 4.78805128,7.16105714 C4.71392308,6.97177143 4.67307692,6.85668571 4.70787179,6.67951429 L4.72753846,6.57957143 C4.77141026,6.55534286 4.81679487,6.44328571 4.83797436,6.29791429 C4.79258974,6.31305714 4.75325641,6.30397143 4.72148718,6.27368571 C4.68517949,6.41602857 4.68064103,6.53414286 4.70938462,6.572 L4.68820513,6.67345714 C4.65189744,6.85062857 4.56869231,6.943 4.42648718,7.08685714 C4.27974359,7.23525714 4.20712821,7.54265714 4.21166667,7.54568571 Z"></path>
                                                <path d="M3.64889744,7.2716 C3.65192308,7.26554286 3.78958974,7.0914 3.87733333,7.13531429 C3.956,7.18225714 3.69125641,7.77737143 3.41894872,8.30131429 C3.19353846,8.72985714 2.98325641,9.08571429 2.94694872,9.22048571 C2.87735897,9.19928571 2.79717949,9.22957143 2.75633333,9.30074286 C2.7094359,9.38402857 2.73817949,9.48397143 2.81987179,9.52788571 C2.90005128,9.5718 2.99838462,9.54 3.03923077,9.45368571 C3.07402564,9.37948571 3.05284615,9.29468571 2.99838462,9.24622857 C3.08764103,9.14022857 3.25858974,8.76468571 3.4764359,8.3316 C3.75025641,7.80462857 4.08005128,7.25191429 4.16023077,7.29582857 C4.26158974,7.30491429 4.18897436,7.53811429 4.19048718,7.53811429 C4.19351282,7.53811429 4.33571795,7.24585714 4.30697436,7.0596 C4.28125641,6.87334286 4.29789744,6.69617143 4.3765641,6.54474286 L4.42346154,6.45237143 C4.46279487,6.45842857 4.53087179,6.37211429 4.58987179,6.23885714 C4.55961538,6.20857143 4.52784615,6.18888571 4.49002564,6.17677143 C4.41589744,6.30094286 4.38412821,6.40694286 4.40682051,6.44328571 L4.35841026,6.53565714 C4.27520513,6.69465714 4.16174359,6.77491429 3.97566667,6.89 C3.79866667,6.98994286 3.64889744,7.26554286 3.64889744,7.2716 Z"></path>
                                                <path d="M3.19505128,6.83094286 C3.19505128,6.83094286 3.39171795,6.68254286 3.44315385,6.77188571 C3.48097436,6.86425714 3.08461538,7.34882857 2.67917949,7.7804 C2.34484615,8.13171429 2.04682051,8.41942857 1.97874359,8.53754286 C1.91369231,8.50271429 1.82292308,8.51634286 1.7654359,8.57237143 C1.69735897,8.63748571 1.70189744,8.73742857 1.77451282,8.79648571 C1.84561538,8.85554286 1.95151282,8.84645714 2.01202564,8.77528571 C2.06648718,8.7132 2.06648718,8.62688571 2.02261538,8.57085714 C2.13607692,8.4906 2.40233333,8.17714286 2.73061538,7.81977143 C3.13453846,7.3882 3.60805128,6.93542857 3.68520513,6.98842857 C3.76689744,7.04445714 3.63225641,7.25494286 3.63225641,7.25191429 C3.63679487,7.25494286 3.8455641,7.02174286 3.88338462,6.81125714 C3.92423077,6.6038 3.956,6.4766 4.07702564,6.34334286 L4.14812821,6.26611429 C4.19351282,6.2752 4.28730769,6.20402857 4.37958974,6.095 C4.35689744,6.06017143 4.29184615,6.06774286 4.28428205,6.01777143 C4.18292308,6.11468571 4.10274359,6.23128571 4.12997436,6.25702857 L4.05887179,6.33122857 C3.92876923,6.47054286 3.79564103,6.51748571 3.61107692,6.55231429 C3.4174359,6.59925714 3.19353846,6.82791429 3.19505128,6.83094286 Z"></path>
                                                <path d="M2.85466667,6.30397143 C2.85315385,6.30397143 3.08461538,6.21462857 3.12697436,6.30397143 C3.16328205,6.38725714 2.62774359,6.75977143 2.12246154,7.06717143 C1.70794872,7.31551429 1.34487179,7.51085714 1.24351282,7.60777143 C1.19812821,7.55477143 1.11341026,7.5366 1.04079487,7.57748571 C0.959102564,7.6214 0.928846154,7.72588571 0.972717949,7.80462857 C1.01658974,7.88337143 1.1164359,7.91062857 1.19358974,7.85762857 C1.26166667,7.81371429 1.28889744,7.7274 1.26923077,7.65622857 C1.39933333,7.61231429 1.74123077,7.3776 2.15271795,7.1232 C2.66858974,6.80671429 3.20261538,6.52808571 3.28884615,6.5826 C3.366,6.64771429 3.18294872,6.80974286 3.18294872,6.80974286 C3.18446154,6.81277143 3.45676923,6.64165714 3.53392308,6.45842857 C3.60048718,6.29034286 3.69125641,6.15708571 3.8455641,6.06471429 L3.93482051,6.00868571 C3.95751282,6.03897143 4.06794872,5.99657143 4.19351282,5.91177143 C4.16325641,5.88148571 4.16930769,5.83151429 4.14358974,5.80274286 C4.01651282,5.87088571 3.92876923,5.94811429 3.92876923,5.99202857 L3.838,6.04502857 C3.68369231,6.1374 3.55207692,6.14497143 3.33876923,6.14497143 C3.1224359,6.14497143 2.85164103,6.30094286 2.85466667,6.30397143 Z"></path>
                                                <path d="M2.69582051,5.69825714 C2.69430769,5.69825714 2.93938462,5.67402857 2.92728205,5.77851429 C2.94241026,5.86785714 2.34333333,6.07682857 1.76997436,6.23734286 C1.30251282,6.36454286 0.900102564,6.45388571 0.777564103,6.519 C0.742769231,6.45691429 0.662589744,6.41905714 0.582410256,6.43571429 C0.491641026,6.45994286 0.440205128,6.54777143 0.467435897,6.63711429 C0.494666667,6.72342857 0.589974359,6.7734 0.677717949,6.74311429 C0.757897436,6.71585714 0.801769231,6.6462 0.795717949,6.57502857 C0.934897436,6.56594286 1.32671795,6.43268571 1.79115385,6.29942857 C2.35997436,6.14042857 2.99687179,6.00111429 3.02712821,6.08591429 C3.05738462,6.1798 2.83802564,6.28731429 2.83953846,6.28428571 C2.85012821,6.28731429 3.13605128,6.19797143 3.28430769,6.03897143 C3.43558974,5.88148571 3.5354359,5.7876 3.70789744,5.74065714 L3.80623077,5.71037143 C3.83648718,5.74065714 3.94994872,5.72854286 4.08610256,5.68311429 C4.08005128,5.64222857 4.06341026,5.60891429 4.03920513,5.57408571 C3.89851282,5.60588571 3.80320513,5.65434286 3.80017949,5.6922 L3.70184615,5.71945714 C3.543,5.76337143 3.35389744,5.74974286 3.189,5.6816 C3.01048718,5.61497143 2.69430769,5.69522857 2.69582051,5.69825714 Z"></path>
                                                <path d="M2.69430769,5.06831429 C2.69430769,5.06831429 2.93635897,5.11222857 2.91517949,5.20762857 C2.89097436,5.3 2.23441026,5.34088571 1.64289744,5.33785714 C1.16030769,5.33482857 0.748820513,5.31362857 0.609641026,5.34391429 C0.602076923,5.27274286 0.543076923,5.21671429 0.461384615,5.21368571 C0.367589744,5.20762857 0.284384615,5.28182857 0.275307692,5.37268571 C0.284384615,5.46505714 0.367589744,5.53471429 0.461384615,5.53168571 C0.543076923,5.52865714 0.602076923,5.4696 0.609641026,5.39842857 C0.748820513,5.42871429 1.15879487,5.40751429 1.64289744,5.40448571 C2.23441026,5.40448571 2.89097436,5.44234286 2.91517949,5.53471429 C2.93787179,5.63162857 2.69430769,5.67402857 2.69430769,5.67402857 C2.69430769,5.68008571 3.012,5.67402857 3.18294872,5.55894286 C3.35238462,5.44688571 3.45979487,5.38177143 3.63982051,5.38177143 L3.74269231,5.38177143 C3.77446154,5.41962857 3.89397436,5.44082857 4.03769231,5.43174286 C4.01348718,5.39388571 4.01348718,5.35148571 4.03769231,5.3106 C3.89246154,5.30454286 3.77294872,5.32574286 3.74269231,5.36057143 L3.63982051,5.36057143 C3.45979487,5.36057143 3.35389744,5.29545714 3.18294872,5.18642857 C3.012,5.07134286 2.69430769,5.06225714 2.69430769,5.06831429 Z"></path>
                                                <path d="M2.84105128,4.45805714 C2.83953846,4.45805714 3.05889744,4.56405714 3.02864103,4.65642857 C2.99687179,4.74274286 2.36148718,4.60342857 1.79266667,4.44291429 C1.32671795,4.30965714 0.936410256,4.1764 0.797230769,4.17034286 C0.803282051,4.09614286 0.759410256,4.02497143 0.679230769,3.99922857 C0.591487179,3.97197143 0.496179487,4.02042857 0.468948718,4.10825714 C0.441717949,4.19608571 0.494666667,4.28542857 0.583923077,4.30662857 C0.664102564,4.3248 0.742769231,4.28845714 0.779076923,4.22334286 C0.901615385,4.28845714 1.30553846,4.38082857 1.77148718,4.50802857 C2.34484615,4.66702857 2.94241026,4.87448571 2.92879487,4.96382857 C2.94089744,5.0668 2.69582051,5.04408571 2.69733333,5.04408571 C2.69582051,5.05014286 3.012,5.1304 3.19051282,5.06225714 C3.35389744,4.99411429 3.543,4.97897143 3.70335897,5.0244 L3.80169231,5.05165714 C3.80471795,5.08951429 3.90002564,5.141 4.04071795,5.16977143 C4.0664359,5.13797143 4.0815641,5.10162857 4.08761538,5.06377143 C3.95146154,5.01682857 3.838,5.00471429 3.80774359,5.03348571 L3.70941026,5.00622857 C3.53694872,4.95625714 3.43558974,4.86388571 3.28582051,4.70488571 C3.1375641,4.54437143 2.85164103,4.45805714 2.84105128,4.45805714 Z"></path>
                                                <path d="M3.18294872,3.92957143 C3.18294872,3.92957143 3.366,4.0916 3.28884615,4.15671429 C3.20261538,4.20971429 2.66858974,3.9326 2.15271795,3.61611429 C1.74123077,3.36171429 1.39933333,3.127 1.26923077,3.08308571 C1.29041026,3.01191429 1.26166667,2.92862857 1.19358974,2.88168571 C1.11492308,2.83171429 1.01658974,2.85442857 0.972717949,2.93468571 C0.928846154,3.01797143 0.957589744,3.12094286 1.03928205,3.16485714 C1.11189744,3.20271429 1.19661538,3.18908571 1.242,3.13305714 C1.34335897,3.22997143 1.7064359,3.42531429 2.12094872,3.67365714 C2.62623077,3.98105714 3.16176923,4.35357143 3.12546154,4.43988571 C3.08461538,4.52922857 2.85164103,4.43685714 2.85315385,4.43988571 C2.85012821,4.44291429 3.12092308,4.59888571 3.33725641,4.59737143 C3.5505641,4.59737143 3.68369231,4.60342857 3.83648718,4.69428571 L3.92725641,4.74728571 C3.92725641,4.7912 4.015,4.86842857 4.14207692,4.93657143 C4.16930769,4.90628571 4.16325641,4.85631429 4.192,4.82754286 C4.0664359,4.74425714 3.956,4.70034286 3.93330769,4.73062857 L3.84405128,4.67762857 C3.68974359,4.58374286 3.59897436,4.45048571 3.53241026,4.28088571 C3.45525641,4.10068571 3.18446154,3.92654286 3.18294872,3.92957143 Z"></path>
                                                <path d="M3.63225641,3.48891429 C3.63225641,3.48891429 3.76689744,3.69637143 3.68520513,3.7524 C3.60805128,3.8054 3.13453846,3.35565714 2.73061538,2.92105714 C2.40233333,2.56671429 2.13607692,2.25022857 2.02261538,2.16997143 C2.06648718,2.11394286 2.06648718,2.03065714 2.01202564,1.96857143 C1.95151282,1.8974 1.84561538,1.88528571 1.77451282,1.94434286 C1.70341026,2.0034 1.69735897,2.10334286 1.7654359,2.17148571 C1.82292308,2.22751429 1.91369231,2.23962857 1.97874359,2.20328571 C2.04682051,2.3214 2.34484615,2.60911429 2.67917949,2.96042857 C3.08461538,3.39502857 3.48097436,3.8796 3.44315385,3.97197143 C3.39171795,4.05828571 3.19505128,3.90988571 3.19505128,3.90988571 C3.19353846,3.91291429 3.41592308,4.14308571 3.61107692,4.18548571 C3.79564103,4.22031429 3.92876923,4.26877143 4.05887179,4.40657143 L4.12997436,4.4838 C4.10123077,4.50802857 4.18141026,4.62311429 4.28428205,4.72002857 C4.29335897,4.67308571 4.35841026,4.68217143 4.37958974,4.64582857 C4.28579487,4.53377143 4.19351282,4.46562857 4.14812821,4.47168571 L4.07702564,4.39445714 C3.956,4.26422857 3.92423077,4.13702857 3.88338462,3.92654286 C3.8455641,3.71908571 3.63679487,3.48588571 3.63225641,3.48891429 Z"></path>
                                                <path d="M4.19048718,3.20422857 C4.19048718,3.20422857 4.26461538,3.43742857 4.16174359,3.44651429 C4.0815641,3.49042857 3.75176923,2.93468571 3.47794872,2.40771429 C3.25858974,1.97614286 3.08764103,1.6006 2.99989744,1.49308571 C3.05435897,1.44614286 3.07705128,1.35982857 3.04074359,1.28562857 C3.00141026,1.20082857 2.90307692,1.16902857 2.82138462,1.21142857 C2.73969231,1.25534286 2.71094872,1.35982857 2.75784615,1.43857143 C2.79869231,1.50974286 2.87887179,1.54154286 2.94846154,1.52185714 C2.98325641,1.65511429 3.19353846,2.01248571 3.42046154,2.438 C3.69276923,2.96497143 3.956,3.55857143 3.87884615,3.604 C3.78958974,3.64791429 3.6534359,3.47377143 3.65041026,3.47074286 C3.65041026,3.4768 3.80017949,3.7524 3.97869231,3.84628571 C4.16476923,3.9644 4.27823077,4.04465714 4.3614359,4.20365714 L4.40984615,4.29602857 C4.38564103,4.32782857 4.41892308,4.43837143 4.49153846,4.56254286 C4.53087179,4.55042857 4.56415385,4.52771429 4.59289744,4.49742857 C4.53238462,4.3672 4.46582051,4.28088571 4.42648718,4.28391429 L4.37958974,4.19154286 C4.30092308,4.04011429 4.28579487,3.86597143 4.31,3.67971429 C4.33571795,3.49497143 4.19502564,3.2012 4.19048718,3.20422857 Z"></path>
                                                <path d="M4.80469231,3.07702857 C4.80317949,3.07702857 4.81074359,3.32537143 4.71089744,3.32234286 C4.61710256,3.31628571 4.44615385,2.6818 4.32664103,2.10182857 C4.23284615,1.62634286 4.16930769,1.22051429 4.11182051,1.08877143 C4.17989744,1.06757143 4.22376923,0.9964 4.21015385,0.917657143 C4.19351282,0.825285714 4.10879487,0.755628571 4.01651282,0.769257143 C3.92725641,0.796514286 3.87430769,0.8904 3.89851282,0.982771429 C3.91817949,1.06302857 3.98625641,1.10997143 4.05584615,1.10088571 C4.05584615,1.24474286 4.15871795,1.643 4.26158974,2.11697143 C4.38110256,2.69694286 4.47641026,3.34657143 4.39320513,3.38897143 C4.3024359,3.42682857 4.21166667,3.19968571 4.21166667,3.19968571 C4.20712821,3.19968571 4.27974359,3.51011429 4.42648718,3.65548571 C4.56717949,3.80085714 4.65038462,3.89474286 4.68820513,4.06888571 L4.71089744,4.16882857 C4.68064103,4.20668571 4.68517949,4.32782857 4.723,4.46714286 C4.75476923,4.43988571 4.79410256,4.42928571 4.83948718,4.44291429 C4.81679487,4.30057143 4.77292308,4.18548571 4.72905128,4.16428571 L4.70938462,4.06131429 C4.67307692,3.88414286 4.7154359,3.76905714 4.7895641,3.57977143 C4.86671795,3.39048571 4.80923077,3.07702857 4.80469231,3.07702857 Z"></path>
                                                <path d="M5.43553846,3.09822857 C5.43553846,3.09822857 5.37653846,3.33748571 5.27820513,3.32234286 C5.1874359,3.31022857 5.19197436,2.65757143 5.23282051,2.06851429 C5.26912821,1.58394286 5.31905128,1.17357143 5.29787179,1.03425714 C5.37048718,1.0282 5.43251282,0.966114286 5.44158974,0.885857143 C5.45217949,0.791971429 5.38561538,0.708685714 5.29333333,0.6996 C5.19953846,0.690514286 5.12541026,0.758657143 5.12238462,0.854057143 C5.11935897,0.937342857 5.17230769,1.00851429 5.24189744,1.0282 C5.20407692,1.16145714 5.19651282,1.57334286 5.16776923,2.05942857 C5.1284359,2.65454286 5.04523077,3.28145714 4.9514359,3.28751429 C4.85310256,3.31931429 4.82738462,3.074 4.82738462,3.074 C4.82284615,3.074 4.80771795,3.39957143 4.91058974,3.5616 C5.00892308,3.70697143 5.06641026,3.8902 5.05430769,4.05525714 L5.04825641,4.15822857 C5.0104359,4.16731429 4.98169231,4.27028571 4.97866667,4.41565714 C5.018,4.43685714 5.05884615,4.44594286 5.09969231,4.44291429 C5.11784615,4.30057143 5.10423077,4.18548571 5.06792308,4.16125714 L5.07548718,4.05828571 C5.08910256,3.88111429 5.16171795,3.763 5.28576923,3.58582857 C5.41284615,3.40865714 5.44007692,3.09822857 5.43553846,3.09822857 Z"></path>
                                                <path d="M6.01948718,3.32234286 C6.01948718,3.32234286 5.89846154,3.53585714 5.81979487,3.47074286 C5.74415385,3.41168571 5.91358974,2.8196 6.11479487,2.25174286 C6.28120513,1.79897143 6.44005128,1.41434286 6.45669231,1.27805714 C6.52930769,1.28714286 6.60646154,1.2402 6.63671795,1.16448571 C6.67151282,1.07514286 6.62915385,0.984285714 6.54141026,0.957028571 C6.45366667,0.929771429 6.35987179,0.981257143 6.33112821,1.06908571 C6.30541026,1.14631429 6.34020513,1.22657143 6.40374359,1.26291429 C6.32810256,1.38102857 6.21010256,1.77474286 6.05276923,2.23357143 C5.85610256,2.79234286 5.6004359,3.39351429 5.51269231,3.37231429 C5.41738462,3.34657143 5.45823077,3.10428571 5.45823077,3.10428571 C5.45369231,3.10125714 5.35838462,3.39654286 5.40225641,3.61308571 C5.44461538,3.82357143 5.46428205,3.95682857 5.40528205,4.12794286 L5.37048718,4.22485714 C5.32964103,4.23394286 5.27215385,4.33388571 5.23130769,4.47017143 C5.26458974,4.48834286 5.30694872,4.48834286 5.34628205,4.4944 C5.40528205,4.35205714 5.41889744,4.25211429 5.38712821,4.22788571 L5.4234359,4.13097143 C5.47941026,3.96894286 5.59741026,3.83265714 5.74717949,3.73725714 C5.90602564,3.6252 6.02402564,3.32234286 6.01948718,3.32234286 Z"></path>
                                                <path d="M6.53687179,3.6782 C6.53838462,3.6782 6.36289744,3.85234286 6.29179487,3.78117143 C6.22674359,3.71302857 6.57317949,3.15728571 6.9135641,2.67271429 C7.19646154,2.279 7.45061538,1.95645714 7.50658974,1.82622857 C7.57012821,1.85802857 7.65182051,1.8444 7.70174359,1.77928571 C7.75923077,1.70508571 7.74712821,1.59605714 7.67602564,1.537 C7.60794872,1.47491429 7.49902564,1.5052 7.44910256,1.58394286 C7.40220513,1.65511429 7.41884615,1.72931429 7.46271795,1.7914 C7.36287179,1.88074286 7.14048718,2.23205714 6.86364103,2.63182857 C6.52628205,3.10731429 6.11933333,3.61611429 6.02705128,3.59037143 C5.93325641,3.55857143 6.03764103,3.33294286 6.03764103,3.33294286 C6.03461538,3.33294286 5.85761538,3.59642857 5.85307692,3.80085714 C5.84702564,3.99922857 5.83794872,4.12037143 5.72902564,4.27634286 L5.67002564,4.36114286 C5.63523077,4.346 5.53689744,4.45048571 5.46276923,4.5686 C5.51117949,4.56557143 5.52479487,4.61857143 5.5565641,4.6428 C5.64733333,4.53074286 5.69574359,4.42171429 5.68061538,4.37628571 L5.74112821,4.293 C5.84551282,4.1446 5.96351282,4.0916 6.15564103,4.01134286 C6.35382051,3.9326 6.54141026,3.68122857 6.53687179,3.6782 Z"></path>
                                                <path d="M6.93625641,4.1658 C6.93323077,4.1658 6.73051282,4.27785714 6.68815385,4.19002857 C6.62915385,4.11885714 7.10417949,3.6782 7.56407692,3.30568571 C7.94076923,3.00434286 8.27510256,2.75902857 8.35982051,2.64848571 C8.41730769,2.69542857 8.50505128,2.69845714 8.57010256,2.64848571 C8.64574359,2.59245714 8.65935897,2.48948571 8.60035897,2.41831429 C8.54135897,2.34714286 8.43697436,2.33805714 8.36738462,2.40014286 C8.30535897,2.45617143 8.29174359,2.54248571 8.32502564,2.6076 C8.20248718,2.66968571 7.89538462,2.94528571 7.52323077,3.25571429 C7.06484615,3.62822857 6.53838462,4.0068 6.47787179,3.93865714 C6.41433333,3.86142857 6.55351282,3.6994 6.5595641,3.69031429 C6.55653846,3.68728571 6.30692308,3.9008 6.2645641,4.081 C6.18741026,4.29148571 6.12841026,4.42171429 5.98923077,4.5368 L5.90905128,4.60191429 C5.87274359,4.58374286 5.77289744,4.63674286 5.667,4.73214286 L5.74717949,4.82602857 C5.86366667,4.73971429 5.93325641,4.65491429 5.92266667,4.61554286 L6.00435897,4.55042857 C6.139,4.4414 6.29330769,4.399 6.49753846,4.37628571 C6.68210256,4.3672 6.93928205,4.16882857 6.93625641,4.1658 Z"></path>
                                                <path d="M7.18284615,4.73971429 C7.18284615,4.73971429 6.94382051,4.79574286 6.92717949,4.69882857 C6.9135641,4.60645714 7.50205128,4.30814286 8.04364103,4.07494286 C8.48841026,3.88565714 8.87871795,3.73725714 8.98612821,3.65851429 C9.02697436,3.71757143 9.09958974,3.75088571 9.17674359,3.71757143 C9.26146154,3.68728571 9.32197436,3.58128571 9.27658974,3.50102857 C9.23271795,3.41774286 9.12682051,3.38594286 9.04512821,3.42682857 C8.971,3.46165714 8.93923077,3.53888571 8.95738462,3.60702857 C8.81971795,3.63731429 8.45210256,3.82054286 8.00884615,4.01588571 C7.46876923,4.25211429 6.85002564,4.47774286 6.7955641,4.40354286 C6.73958974,4.32328571 6.94533333,4.18397143 6.94533333,4.18397143 C6.94382051,4.18094286 6.65789744,4.3142 6.54141026,4.48834286 C6.4264359,4.65945714 6.35079487,4.76091429 6.18741026,4.83511429 L6.09361538,4.876 C6.05276923,4.85177143 5.93628205,4.88205714 5.80617949,4.94717143 C5.83341026,4.97745714 5.86517949,5.00925714 5.85610256,5.05317143 C5.99074359,5.0032 6.09512821,4.93505714 6.10723077,4.89114286 L6.20253846,4.85025714 C6.37046154,4.77908571 6.48846154,4.79422857 6.68815385,4.82602857 C6.88935897,4.86085714 7.18435897,4.74274286 7.18284615,4.73971429 Z"></path>
                                                <path d="M7.28874359,5.36057143 C7.29025641,5.36057143 7.04215385,5.34845714 7.03610256,5.25154286 C7.0315641,5.15917143 7.66997436,5.03197143 8.25694872,4.95322857 C8.73651282,4.89114286 9.148,4.85631429 9.27961538,4.80785714 C9.30079487,4.876 9.37189744,4.92294286 9.45358974,4.91688571 C9.54738462,4.9078 9.61394872,4.82451429 9.60638462,4.73365714 C9.59579487,4.64128571 9.51258974,4.5792 9.42333333,4.59737143 C9.34012821,4.61251429 9.28264103,4.67762857 9.2735641,4.75182857 C9.13741026,4.73971429 8.73197436,4.81694286 8.25241026,4.88508571 C7.66089744,4.96837143 7.03458974,5.01228571 7.00584615,4.92294286 C6.9574359,4.8336 7.19041026,4.76091429 7.19041026,4.76091429 C7.18889744,4.75485714 6.86969231,4.80785714 6.729,4.94111429 C6.611,5.06225714 6.43853846,5.15765714 6.27515385,5.18037143 L6.17228205,5.19551429 C6.15564103,5.15765714 6.04823077,5.1516 5.90753846,5.17734286 C5.8954359,5.22125714 5.89392308,5.26365714 5.903,5.30151429 C6.04823077,5.2894 6.15564103,5.25457143 6.17228205,5.21217143 L6.27515385,5.20005714 C6.45215385,5.17582857 6.58074359,5.22428571 6.7804359,5.30908571 C6.98164103,5.40145714 7.28874359,5.3636 7.28874359,5.36057143 Z"></path>
                                            </g>
                                        </g>
                                        <ellipse id="Oval" fill="#D3B344" cx="4.97261538" cy="5.37268571" rx="3.17994872" ry="3.18302857"></ellipse>
                                        <g id="Group" opacity="0.8" transform="translate(1.512821, 1.514286)" fill="#FCD944">
                                            <g transform="translate(4.538462, 3.028571)" id="Shape">
                                                <polygon points="0.0226666667 1.03728571 2.33274359 1.47188571 2.35846154 1.23717143 0.0226666667 0.960057143"></polygon>
                                            </g>
                                            <g transform="translate(3.538462, 4.028571)" id="Shape">
                                                <polygon points="0.906179487 0.338628571 2.98328205 1.44102857 3.09523077 1.23205714 0.947025641 0.276542857"></polygon>
                                            </g>
                                            <g transform="translate(3.538462, 4.542857)" id="Shape">
                                                <polygon points="0.721615385 0.0984285714 2.38269231 1.76111429 2.53548718 1.58091429 0.763974359 0.0333142857"></polygon>
                                            </g>
                                            <g transform="translate(3.538462, 4.542857)" id="Shape">
                                                <polygon points="0.447794872 0.283171429 1.54610256 2.36228571 1.75487179 2.24871429 0.515871795 0.249857143"></polygon>
                                            </g>
                                            <g transform="translate(3.538462, 4.542857)" id="Shape">
                                                <path d="M0.14674359,0.398257143 L0.580923077,2.71057143 C0.661102564,2.70754286 0.733717949,2.67271429 0.807846154,2.65151429 L0.216333333,0.374028571 C0.192128205,0.380085714 0.172461538,0.407342857 0.14674359,0.398257143 Z"></path>
                                            </g>
                                            <g transform="translate(3.025641, 4.542857)" id="Shape">
                                                <polygon points="0.32825641 0.401285714 0.065025641 2.73782857 0.301025641 2.76054286 0.403897436 0.410371429"></polygon>
                                            </g>
                                            <g transform="translate(2.025641, 4.542857)" id="Shape">
                                                <path d="M1.0105641,0.327085714 L0.0695897436,2.48342857 C0.139179487,2.52128571 0.217846154,2.53642857 0.291974359,2.56368571 L1.08166667,0.348285714 L1.0105641,0.327085714 Z"></path>
                                            </g>
                                            <g transform="translate(0.512821, 4.542857)" id="Shape">
                                                <polygon points="2.25107692 0.143857143 0.717076923 1.92617143 0.900128205 2.0776 2.3085641 0.193828571"></polygon>
                                            </g>
                                            <g transform="translate(0.512821, 4.028571)" id="Shape">
                                                <path d="M2.03323077,0.412828571 L0.0438717949,1.66665714 C0.0771538462,1.73782857 0.124051282,1.80294286 0.177,1.862 L2.07710256,0.474914286 L2.03323077,0.412828571 Z"></path>
                                            </g>
                                            <g transform="translate(0.000000, 4.028571)" id="Shape">
                                                <polygon points="2.42048718 0.113 0.14974359 0.720228571 0.219333333 0.947371429 2.44166667 0.184171429"></polygon>
                                            </g>
                                            <g transform="translate(0.000000, 3.028571)" id="Shape">
                                                <path d="M2.38115385,0.788942857 L0.0302307692,0.6996 C0.0196410256,0.779857143 0.0151025641,0.857085714 0.0287179487,0.935828571 L2.37812821,0.861628571 C2.36905128,0.838914286 2.37207692,0.811657143 2.38115385,0.788942857 Z"></path>
                                            </g>
                                            <g transform="translate(0.000000, 2.514286)" id="Shape">
                                                <polygon points="2.44469231 0.980685714 0.226897436 0.202342857 0.155794872 0.429485714 2.42351282 1.05034286"></polygon>
                                            </g>
                                            <g transform="translate(0.512821, 1.514286)" id="Shape">
                                                <path d="M2.08164103,1.69297143 L0.192128205,0.293771429 C0.140692308,0.352828571 0.0877435897,0.411885714 0.0544615385,0.486085714 L2.03625641,1.75202857 C2.04079487,1.72628571 2.06348718,1.71114286 2.08164103,1.69297143 Z"></path>
                                            </g>
                                            <g transform="translate(0.512821, 1.000000)" id="Shape">
                                                <polygon points="2.31461538 1.97405714 0.918282051 0.0812 0.735230769 0.231114286 2.25712821 2.02402857"></polygon>
                                            </g>
                                            <g transform="translate(2.025641, 0.000000)" id="Shape">
                                                <polygon points="1.09074359 2.82262857 0.314666667 0.601171429 0.0907692308 0.675371429 1.01812821 2.8408"></polygon>
                                            </g>
                                            <g transform="translate(3.025641, 0.000000)" id="Shape">
                                                <polygon points="0.411461538 2.76054286 0.323717949 0.410371429 0.0892307692 0.430057143 0.335820513 2.77265714"></polygon>
                                            </g>
                                            <g transform="translate(3.538462, 0.000000)" id="Shape">
                                                <polygon points="0.222384615 2.79991429 0.832051282 0.525457143 0.602102564 0.463371429 0.154307692 2.77265714"></polygon>
                                            </g>
                                            <g transform="translate(3.538462, 0.000000)" id="Shape">
                                                <polygon points="0.523435897 2.92711429 1.77605128 0.9328 1.56728205 0.820742857 0.455358974 2.8938"></polygon>
                                            </g>
                                            <g transform="translate(3.538462, 1.000000)" id="Shape">
                                                <polygon points="0.768512821 2.14517143 2.55061538 0.609685714 2.39782051 0.426457143 0.724641026 2.08005714"></polygon>
                                            </g>
                                            <g transform="translate(3.538462, 1.514286)" id="Shape">
                                                <polygon points="0.951564103 1.90345714 3.10733333 0.960057143 2.99387179 0.7526 0.909205128 1.83834286"></polygon>
                                            </g>
                                            <g transform="translate(4.538462, 3.028571)" id="Shape">
                                                <polygon points="0.0226666667 0.705657143 2.35997436 0.4452 2.33425641 0.208971429 0.0211538462 0.628428571"></polygon>
                                            </g>
                                        </g>
                                        <ellipse id="Oval" fill="#362C38" cx="4.97261538" cy="5.37268571" rx="1.66107692" ry="1.66268571"></ellipse>
                                        <ellipse id="Oval" fill="#D3D0D4" cx="4.42194872" cy="4.7276" rx="1" ry="1"></ellipse>
                                    </g>
                                    <g id="eye" transform="translate(4.538462, 6.057143)">
                                        <g id="Group">
                                            <ellipse id="Oval" fill="#766B78" cx="5.29033333" cy="5.37268571" rx="4.69579487" ry="4.70034286"></ellipse>
                                            <g id="Shape" fill="#483A4B">
                                                <path d="M7.50812821,5.98142857 C7.50812821,5.98142857 7.27515385,5.90722857 7.32507692,5.8194 C7.35230769,5.73005714 7.97861538,5.77548571 8.56861538,5.85725714 C9.04817949,5.92842857 9.45512821,6.00565714 9.59128205,5.99354286 C9.60035897,6.06471429 9.65935897,6.13285714 9.73953846,6.148 C9.83182051,6.16314286 9.91351282,6.10408571 9.92258974,6.00868571 C9.93317949,5.91631429 9.86510256,5.83757143 9.77130769,5.82848571 C9.68810256,5.8194 9.61851282,5.86634286 9.59733333,5.93751429 C9.46723077,5.88754286 9.05725641,5.85422857 8.57466667,5.79214286 C7.98920513,5.71188571 7.35079487,5.58468571 7.35382051,5.4908 C7.35987179,5.39388571 7.60797436,5.3848 7.60797436,5.3848 C7.60797436,5.37874286 7.29935897,5.34391429 7.09815385,5.43174286 C6.89846154,5.52108571 6.77138462,5.56802857 6.59438462,5.5438 L6.49151282,5.52865714 C6.47335897,5.4908 6.36594872,5.45142857 6.22223077,5.43931429 C6.21315385,5.4802 6.21466667,5.51957143 6.22525641,5.56348571 C6.36746154,5.59074286 6.47335897,5.58468571 6.49151282,5.54834286 L6.59287179,5.56348571 C6.75625641,5.58468571 6.92871795,5.67857143 7.04671795,5.80274286 C7.18741026,5.93448571 7.50812821,5.98748571 7.50812821,5.98142857 Z"></path>
                                                <path d="M7.2645641,6.55837143 C7.26607692,6.55837143 7.05882051,6.42208571 7.11479487,6.3388 C7.17076923,6.2646 7.78497436,6.49022857 8.32958974,6.72645714 C8.77133333,6.92482857 9.13894872,7.10805714 9.27812821,7.13531429 C9.25694872,7.20345714 9.29023077,7.28068571 9.36435897,7.31551429 C9.44907692,7.3564 9.55194872,7.3246 9.59582051,7.24434286 C9.63969231,7.16105714 9.57917949,7.05808571 9.49748718,7.02477143 C9.41882051,6.99448571 9.34620513,7.02477143 9.30535897,7.08382857 C9.1964359,7.00357143 8.80764103,6.85971429 8.36287179,6.67042857 C7.82279487,6.4342 7.23430769,6.13437143 7.24641026,6.04351429 C7.26305128,5.9466 7.50358974,6.00565714 7.50358974,6.00565714 C7.50358974,5.9996 7.20858974,5.88148571 7.00889744,5.91631429 C6.80920513,5.94811429 6.69120513,5.96628571 6.52328205,5.89208571 L6.42797436,5.8512 C6.41435897,5.80728571 6.30846154,5.73914286 6.17382051,5.68917143 C6.18441026,5.73611429 6.15112821,5.7664 6.12541026,5.79517143 C6.25551282,5.86028571 6.37048718,5.88905714 6.41133333,5.86634286 L6.50512821,5.91025714 C6.67002564,5.98142857 6.74415385,6.0844 6.85912821,6.254 C6.97561538,6.42814286 7.26305128,6.5614 7.2645641,6.55837143 Z"></path>
                                                <path d="M6.87274359,7.05202857 C6.86669231,7.04597143 6.72902564,6.88394286 6.79407692,6.80671429 C6.85458974,6.73554286 7.38105128,7.11411429 7.83792308,7.48965714 C8.21007692,7.79705714 8.51717949,8.07568571 8.64123077,8.13777143 C8.60794872,8.20288571 8.62005128,8.2892 8.68207692,8.3422 C8.75317949,8.40428571 8.85605128,8.3952 8.91505128,8.32402857 C8.97405128,8.25285714 8.9604359,8.14988571 8.88479487,8.09385714 C8.81974359,8.04691429 8.73048718,8.04994286 8.67451282,8.09385714 C8.58828205,7.98482857 8.25546154,7.74254286 7.87725641,7.43665714 C7.41887179,7.06414286 6.94384615,6.62651429 7.00284615,6.55534286 C7.04671795,6.46297143 7.24792308,6.57654286 7.25094872,6.57957143 C7.25397436,6.57654286 6.99679487,6.37514286 6.80920513,6.36605714 C6.60497436,6.34182857 6.45066667,6.30397143 6.31602564,6.19191429 L6.23433333,6.1268 C6.2464359,6.08894286 6.17533333,6.00262857 6.06035897,5.91934286 L5.98169231,6.01171429 C6.08910256,6.10862857 6.1874359,6.16011429 6.22525641,6.14194286 L6.3054359,6.21008571 C6.44461538,6.32214286 6.50058974,6.45237143 6.57774359,6.66285714 C6.62161538,6.84305714 6.87123077,7.05505714 6.87274359,7.05202857 Z"></path>
                                                <path d="M6.35535897,7.41091429 C6.35687179,7.41091429 6.25248718,7.18982857 6.34476923,7.15348571 C6.4385641,7.12622857 6.84248718,7.63502857 7.18135897,8.11505714 C7.45820513,8.5118 7.67907692,8.86311429 7.7804359,8.95548571 C7.73958974,9.01757143 7.7214359,9.09177143 7.76530769,9.16294286 C7.81674359,9.24017143 7.92566667,9.27197143 7.99374359,9.20685714 C8.06484615,9.1478 8.07694872,9.0418 8.01946154,8.9676 C7.96953846,8.90248571 7.88633333,8.88431429 7.82430769,8.91762857 C7.76984615,8.79042857 7.51417949,8.46485714 7.23128205,8.07114286 C6.88938462,7.5896 6.54446154,7.02931429 6.60951282,6.96571429 C6.68061538,6.89454286 6.85458974,7.06868571 6.85458974,7.06565714 C6.85912821,7.06565714 6.67153846,6.81125714 6.47487179,6.731 C6.28123077,6.65074286 6.16474359,6.59774286 6.06035897,6.45237143 L6.00135897,6.36605714 C6.01648718,6.32214286 5.9665641,6.21462857 5.87579487,6.09954286 C5.84402564,6.12377143 5.83041026,6.1798 5.782,6.17677143 C5.85764103,6.29488571 5.9514359,6.39634286 5.98925641,6.3812 L6.04825641,6.46751429 C6.15869231,6.62651429 6.16625641,6.74917143 6.17230769,6.94602857 C6.17533333,7.14742857 6.35233333,7.41394286 6.35535897,7.41091429 Z"></path>
                                                <path d="M5.7744359,7.64108571 C5.7744359,7.64108571 5.73510256,7.39577143 5.82889744,7.37154286 C5.91815385,7.35034286 6.17230769,7.95151429 6.36897436,8.50725714 C6.52630769,8.96608571 6.64430769,9.36131429 6.71692308,9.48094286 C6.65489744,9.51577143 6.62312821,9.593 6.64582051,9.67325714 C6.6745641,9.7626 6.76684615,9.81257143 6.85610256,9.78531429 C6.94535897,9.75502857 6.98771795,9.66417143 6.95292308,9.57785714 C6.92115385,9.50062857 6.844,9.45671429 6.77138462,9.46277143 C6.75474359,9.32648571 6.59589744,8.94488571 6.42948718,8.48908571 C6.22828205,7.92425714 6.06035897,7.32914286 6.13448718,7.27311429 C6.21466667,7.208 6.33569231,7.42151429 6.33569231,7.42151429 C6.33871795,7.41848571 6.22374359,7.11714286 6.06338462,7.00508571 C5.91512821,6.9112 5.79712821,6.77491429 5.73964103,6.6144 L5.70484615,6.51748571 C5.73510256,6.49022857 5.72148718,6.39331429 5.664,6.25097143 C5.62315385,6.25702857 5.58230769,6.254 5.54751282,6.27217143 C5.58835897,6.41148571 5.64433333,6.51142857 5.68669231,6.52051429 L5.72148718,6.61742857 C5.78048718,6.78551429 5.75930769,6.91877143 5.71846154,7.13228571 C5.67458974,7.3458 5.76989744,7.64108571 5.7744359,7.64108571 Z"></path>
                                                <path d="M5.14358974,7.66682857 C5.14358974,7.66682857 5.17082051,7.42454286 5.26764103,7.45331429 C5.3614359,7.4624 5.44312821,8.08628571 5.48397436,8.6814 C5.51423077,9.16597143 5.51876923,9.58088571 5.55810256,9.71111429 C5.48851282,9.73534286 5.43707692,9.805 5.43858974,9.88828571 C5.44161538,9.98065714 5.51725641,10.0503143 5.60953846,10.0397143 C5.70182051,10.0306286 5.76687179,9.94734286 5.75779487,9.85648571 C5.74871795,9.7732 5.68669231,9.71414286 5.61558974,9.70505714 C5.63525641,9.56877143 5.58684615,9.1584 5.54902564,8.67534286 C5.50969231,8.08325714 5.50515385,7.43362857 5.59592308,7.41848571 C5.69274359,7.40334286 5.75325641,7.64562857 5.75325641,7.64562857 C5.75930769,7.6426 5.7305641,7.33217143 5.60197436,7.155 C5.47641026,6.97782857 5.40379487,6.86274286 5.39169231,6.68254286 L5.38261538,6.57957143 C5.41741026,6.55534286 5.43253846,6.44328571 5.41438462,6.29791429 C5.37353846,6.29791429 5.33420513,6.307 5.29335897,6.32517143 C5.29638462,6.47054286 5.32512821,6.57351429 5.36446154,6.5826 L5.37051282,6.68557143 C5.38261538,6.85062857 5.32664103,7.03688571 5.22528205,7.18225714 C5.12694872,7.34277143 5.13905128,7.66682857 5.14358974,7.66682857 Z"></path>
                                                <path d="M4.52938462,7.54568571 C4.52938462,7.54568571 4.62166667,7.31551429 4.71092308,7.3564 C4.79412821,7.39425714 4.69882051,8.04842857 4.57930769,8.62537143 C4.47794872,9.10085714 4.37205128,9.4976 4.37507692,9.63994286 C4.30397436,9.63388571 4.23589744,9.68082857 4.21623077,9.76108571 C4.19202564,9.85042857 4.24648718,9.94734286 4.33423077,9.9746 C4.42651282,9.98671429 4.51274359,9.91857143 4.52787179,9.8262 C4.54148718,9.74291429 4.49610256,9.67477143 4.42953846,9.65508571 C4.48702564,9.52485714 4.5505641,9.11751429 4.64435897,8.64051429 C4.76387179,8.06357143 4.93482051,7.42757143 5.03012821,7.42151429 C5.12997436,7.41848571 5.12392308,7.6638 5.12392308,7.6638 C5.12846154,7.6638 5.1844359,7.35337143 5.10728205,7.16105714 C5.03315385,6.97177143 4.99230769,6.85668571 5.02710256,6.67951429 L5.04828205,6.57957143 C5.09064103,6.55534286 5.13602564,6.44328571 5.15720513,6.29791429 C5.11333333,6.31305714 5.074,6.30397143 5.04223077,6.27368571 C5.00441026,6.41602857 4.99987179,6.53414286 5.03012821,6.572 L5.00592308,6.67194286 C4.97112821,6.84911429 4.88641026,6.94148571 4.74420513,7.08534286 C4.59746154,7.23525714 4.52635897,7.54265714 4.52938462,7.54568571 Z"></path>
                                                <path d="M3.96812821,7.2716 C3.97115385,7.26554286 4.10730769,7.0914 4.19505128,7.13531429 C4.27523077,7.18225714 4.01048718,7.77737143 3.73666667,8.30131429 C3.51125641,8.72985714 3.30248718,9.08571429 3.26617949,9.22048571 C3.19507692,9.19928571 3.11489744,9.22957143 3.07405128,9.30074286 C3.02866667,9.38402857 3.05589744,9.48397143 3.13758974,9.52788571 C3.21928205,9.5718 3.31610256,9.54 3.35694872,9.45368571 C3.39023077,9.37948571 3.37207692,9.29468571 3.31610256,9.24622857 C3.40535897,9.14022857 3.57630769,8.76468571 3.79566667,8.3316 C4.06797436,7.80462857 4.39776923,7.25191429 4.47794872,7.29582857 C4.58082051,7.30491429 4.50820513,7.53811429 4.50820513,7.53811429 C4.51123077,7.53811429 4.6534359,7.24585714 4.62620513,7.0596 C4.59897436,6.87334286 4.61712821,6.69617143 4.69428205,6.54474286 L4.74117949,6.45237143 C4.78051282,6.45842857 4.84858974,6.37211429 4.90758974,6.23885714 C4.87733333,6.20857143 4.8455641,6.18888571 4.80774359,6.17677143 C4.73512821,6.30094286 4.70335897,6.40694286 4.72605128,6.44328571 L4.67612821,6.53565714 C4.59292308,6.69465714 4.48097436,6.77491429 4.29338462,6.89 C4.11789744,6.98994286 3.96661538,7.26554286 3.96812821,7.2716 Z"></path>
                                                <path d="M3.51428205,6.83094286 C3.51428205,6.83094286 3.71094872,6.68254286 3.76087179,6.77188571 C3.79869231,6.86425714 3.40384615,7.34882857 2.99689744,7.7804 C2.66407692,8.13171429 2.36605128,8.41942857 2.29646154,8.53754286 C2.23141026,8.50271429 2.14064103,8.51634286 2.08466667,8.57237143 C2.01658974,8.63748571 2.02112821,8.73742857 2.09071795,8.79648571 C2.16333333,8.85554286 2.27074359,8.84645714 2.32974359,8.77528571 C2.38420513,8.7132 2.38420513,8.62688571 2.34033333,8.57085714 C2.45530769,8.4906 2.72005128,8.17714286 3.04833333,7.81977143 C3.45376923,7.3882 3.92576923,6.93542857 4.00292308,6.98842857 C4.08612821,7.04445714 3.94997436,7.25494286 3.95148718,7.25191429 C3.95451282,7.25494286 4.16328205,7.02174286 4.20110256,6.81125714 C4.24194872,6.6038 4.27371795,6.4766 4.39625641,6.34334286 L4.46735897,6.26611429 C4.51123077,6.2752 4.60653846,6.20402857 4.69730769,6.095 C4.67612821,6.06017143 4.6095641,6.06774286 4.60351282,6.01777143 C4.50064103,6.11468571 4.42046154,6.23128571 4.44920513,6.25702857 L4.37810256,6.33122857 C4.248,6.47054286 4.11335897,6.51748571 3.92879487,6.55231429 C3.73515385,6.59925714 3.51125641,6.82791429 3.51428205,6.83094286 Z"></path>
                                                <path d="M3.17238462,6.30397143 C3.17238462,6.30397143 3.40233333,6.21462857 3.44620513,6.30397143 C3.481,6.38725714 2.94697436,6.75977143 2.44169231,7.06717143 C2.02566667,7.31551429 1.66258974,7.51085714 1.56123077,7.60777143 C1.51584615,7.55477143 1.43112821,7.5366 1.36002564,7.57748571 C1.27833333,7.6214 1.24807692,7.72588571 1.29194872,7.80462857 C1.33582051,7.88337143 1.43415385,7.91062857 1.51282051,7.85762857 C1.58241026,7.81371429 1.60964103,7.7274 1.58997436,7.65622857 C1.7185641,7.61231429 2.06197436,7.3776 2.47194872,7.1232 C2.98630769,6.80671429 3.52184615,6.52808571 3.60807692,6.5826 C3.68674359,6.64771429 3.50217949,6.80974286 3.50217949,6.80974286 C3.50520513,6.81277143 3.776,6.64165714 3.85466667,6.45842857 C3.91971795,6.29034286 4.012,6.15708571 4.16630769,6.06471429 L4.25405128,6.00868571 C4.27825641,6.03897143 4.38869231,5.99657143 4.51274359,5.91177143 C4.48248718,5.88148571 4.49005128,5.83151429 4.46433333,5.80274286 C4.33725641,5.87088571 4.24951282,5.94811429 4.248,5.99202857 L4.15874359,6.04502857 C4.0044359,6.1374 3.87282051,6.14497143 3.658,6.14497143 C3.43864103,6.14497143 3.17087179,6.30094286 3.17238462,6.30397143 Z"></path>
                                                <path d="M3.01353846,5.69825714 C3.01353846,5.69825714 3.25710256,5.67402857 3.24651282,5.77851429 C3.26164103,5.86785714 2.66105128,6.07682857 2.08769231,6.23734286 C1.62023077,6.36454286 1.21782051,6.45388571 1.09679487,6.519 C1.062,6.45691429 0.981820513,6.41905714 0.900128205,6.43571429 C0.809358974,6.45994286 0.757923077,6.54777143 0.786666667,6.63711429 C0.813897436,6.72342857 0.907692308,6.7734 0.996948718,6.74311429 C1.07561538,6.71585714 1.12251282,6.6462 1.1134359,6.57502857 C1.25261538,6.56594286 1.64594872,6.43268571 2.10887179,6.29942857 C2.67920513,6.14042857 3.31458974,6.00111429 3.34484615,6.08591429 C3.37510256,6.1798 3.15574359,6.28731429 3.15876923,6.28428571 C3.16935897,6.28731429 3.45528205,6.19797143 3.60202564,6.03897143 C3.75330769,5.88148571 3.85315385,5.7876 4.02561538,5.74065714 L4.12546154,5.71037143 C4.15571795,5.74065714 4.26766667,5.72854286 4.40382051,5.68311429 C4.39776923,5.64222857 4.38264103,5.60891429 4.35692308,5.57408571 C4.21774359,5.60588571 4.12092308,5.65434286 4.11941026,5.6922 L4.0195641,5.71945714 C3.85920513,5.76337143 3.67161538,5.74974286 3.50671795,5.6816 C3.32820513,5.61497143 3.01353846,5.69522857 3.01353846,5.69825714 Z"></path>
                                                <path d="M3.01353846,5.06831429 C3.01353846,5.06831429 3.25558974,5.11222857 3.23289744,5.20762857 C3.20869231,5.3 2.55364103,5.34088571 1.96212821,5.33785714 C1.47802564,5.33482857 1.06653846,5.31362857 0.927358974,5.34391429 C0.921307692,5.27274286 0.862307692,5.21671429 0.779102564,5.21368571 C0.685307692,5.20762857 0.602102564,5.28182857 0.593025641,5.37268571 C0.602102564,5.46505714 0.685307692,5.53471429 0.779102564,5.53168571 C0.862307692,5.52865714 0.921307692,5.4696 0.927358974,5.39842857 C1.06653846,5.42871429 1.47651282,5.40751429 1.96212821,5.40448571 C2.55364103,5.40448571 3.20869231,5.44234286 3.23289744,5.53471429 C3.25710256,5.63162857 3.01202564,5.67402857 3.01202564,5.67402857 C3.01353846,5.68008571 3.32971795,5.67402857 3.50066667,5.55894286 C3.67161538,5.44688571 3.77902564,5.38177143 3.95753846,5.38177143 L4.06192308,5.38177143 C4.09217949,5.41962857 4.21169231,5.44082857 4.35692308,5.43174286 C4.33271795,5.39388571 4.33271795,5.35148571 4.35692308,5.3106 C4.21017949,5.30454286 4.09066667,5.32574286 4.06192308,5.36057143 L3.95753846,5.36057143 C3.77902564,5.36057143 3.67312821,5.29545714 3.50066667,5.18642857 C3.32971795,5.07134286 3.01353846,5.06225714 3.01353846,5.06831429 Z"></path>
                                                <path d="M3.16028205,4.45805714 C3.15725641,4.45805714 3.37661538,4.56405714 3.34635897,4.65642857 C3.31458974,4.74274286 2.68071795,4.60342857 2.11038462,4.44291429 C1.64594872,4.30965714 1.25412821,4.1764 1.11494872,4.17034286 C1.12402564,4.09614286 1.07712821,4.02497143 0.998461538,3.99922857 C0.909205128,3.97197143 0.816923077,4.02042857 0.788179487,4.10825714 C0.759435897,4.19608571 0.813897436,4.28542857 0.901641026,4.30662857 C0.983333333,4.3248 1.062,4.28845714 1.09982051,4.22334286 C1.21933333,4.28845714 1.62325641,4.38082857 2.08920513,4.50802857 C2.6625641,4.66702857 3.26164103,4.87448571 3.24802564,4.96382857 C3.25861538,5.0668 3.01505128,5.04408571 3.01505128,5.04408571 C3.01505128,5.05014286 3.32971795,5.1304 3.50823077,5.06225714 C3.67161538,4.99411429 3.85920513,4.97897143 4.02107692,5.0244 L4.12092308,5.05165714 C4.1224359,5.08951429 4.21925641,5.141 4.3584359,5.16977143 C4.38566667,5.13797143 4.39928205,5.10162857 4.40533333,5.06377143 C4.26917949,5.01682857 4.15723077,5.00471429 4.12697436,5.03348571 L4.02712821,5.00622857 C3.85466667,4.95625714 3.75330769,4.86388571 3.60353846,4.70488571 C3.45679487,4.54437143 3.17087179,4.45805714 3.16028205,4.45805714 Z"></path>
                                                <path d="M3.49915385,3.92957143 C3.49915385,3.92957143 3.68371795,4.0916 3.60505128,4.15671429 C3.51882051,4.20971429 2.98328205,3.9326 2.46892308,3.61611429 C2.05894872,3.36171429 1.71553846,3.12851429 1.58694872,3.08308571 C1.60812821,3.01191429 1.57938462,2.92862857 1.50979487,2.88168571 C1.43112821,2.83171429 1.33430769,2.85442857 1.28892308,2.93468571 C1.24505128,3.01797143 1.27530769,3.12094286 1.357,3.16485714 C1.42810256,3.20271429 1.51282051,3.18908571 1.55820513,3.13305714 C1.6595641,3.22997143 2.02264103,3.42531429 2.43866667,3.67365714 C2.94394872,3.98105714 3.47948718,4.35357143 3.44317949,4.43988571 C3.40082051,4.52922857 3.16784615,4.43685714 3.16784615,4.43685714 C3.16784615,4.44291429 3.43712821,4.59888571 3.65346154,4.59585714 C3.86828205,4.59585714 3.99989744,4.60191429 4.15420513,4.69277143 L4.24346154,4.74577143 C4.24346154,4.78968571 4.33271795,4.86691429 4.45979487,4.93505714 C4.48702564,4.90477143 4.47946154,4.8548 4.50820513,4.82602857 C4.38415385,4.74274286 4.27371795,4.69882857 4.24951282,4.72911429 L4.16176923,4.67611429 C4.00594872,4.58222857 3.91517949,4.44897143 3.85012821,4.27937143 C3.77297436,4.10068571 3.50217949,3.92654286 3.49915385,3.92957143 Z"></path>
                                                <path d="M3.94997436,3.48891429 C3.94997436,3.48891429 4.08612821,3.69637143 4.00292308,3.7524 C3.92576923,3.8054 3.45376923,3.35565714 3.04833333,2.92105714 C2.72005128,2.56671429 2.45530769,2.25022857 2.34033333,2.16997143 C2.38420513,2.11394286 2.38420513,2.03065714 2.32974359,1.96857143 C2.27074359,1.8974 2.16333333,1.88528571 2.09223077,1.94434286 C2.02112821,2.0034 2.01658974,2.10334286 2.08466667,2.17148571 C2.14064103,2.22751429 2.23141026,2.23962857 2.29646154,2.20328571 C2.36605128,2.3214 2.66407692,2.60911429 2.99689744,2.96042857 C3.40384615,3.39502857 3.79869231,3.8796 3.76087179,3.97197143 C3.71094872,4.05828571 3.51276923,3.90988571 3.51428205,3.90988571 C3.51125641,3.91291429 3.73515385,4.14308571 3.92879487,4.18548571 C4.11335897,4.22031429 4.248,4.26877143 4.37810256,4.40657143 L4.44920513,4.4838 C4.41894872,4.50802857 4.49912821,4.62311429 4.60351282,4.72002857 C4.61107692,4.67308571 4.67764103,4.68217143 4.69730769,4.64582857 C4.60502564,4.53377143 4.51123077,4.46562857 4.46735897,4.47168571 L4.39625641,4.39445714 C4.27371795,4.26422857 4.24194872,4.13702857 4.20110256,3.92654286 C4.16328205,3.71908571 3.95451282,3.48588571 3.94997436,3.48891429 Z"></path>
                                                <path d="M4.50820513,3.20422857 C4.50820513,3.20422857 4.58233333,3.43742857 4.47794872,3.44651429 C4.39776923,3.49042857 4.06797436,2.93468571 3.79566667,2.40771429 C3.57479487,1.97614286 3.40384615,1.6006 3.31761538,1.49308571 C3.37207692,1.44614286 3.39174359,1.35982857 3.35694872,1.28562857 C3.31761538,1.20082857 3.21928205,1.16902857 3.13758974,1.21142857 C3.05589744,1.25534286 3.02866667,1.35982857 3.07405128,1.43857143 C3.11489744,1.50974286 3.19507692,1.54154286 3.26617949,1.52185714 C3.30097436,1.65511429 3.50974359,2.01248571 3.73666667,2.438 C4.01048718,2.96497143 4.27371795,3.55857143 4.19505128,3.604 C4.10579487,3.64791429 3.97115385,3.47377143 3.96812821,3.47074286 C3.96661538,3.4768 4.11638462,3.7524 4.29489744,3.84628571 C4.48248718,3.9644 4.5944359,4.04465714 4.67764103,4.20365714 L4.7275641,4.29602857 C4.70184615,4.32782857 4.73512821,4.43837143 4.80925641,4.56254286 C4.84707692,4.55042857 4.88035897,4.52771429 4.90910256,4.49742857 C4.85010256,4.3672 4.78202564,4.28088571 4.74269231,4.28391429 L4.69579487,4.19154286 C4.61864103,4.04011429 4.602,3.86597143 4.62771795,3.67971429 C4.6534359,3.49497143 4.51123077,3.2012 4.50820513,3.20422857 Z"></path>
                                                <path d="M5.12241026,3.07702857 C5.12241026,3.07702857 5.12997436,3.32537143 5.02861538,3.32234286 C4.93482051,3.31628571 4.76235897,2.68028571 4.64284615,2.10031429 C4.54905128,1.62482857 4.48551282,1.219 4.42802564,1.08725714 C4.49610256,1.06605714 4.53997436,0.994885714 4.52635897,0.916142857 C4.51123077,0.823771429 4.425,0.754114286 4.33271795,0.767742857 C4.24346154,0.795 4.19051282,0.888885714 4.21471795,0.981257143 C4.23589744,1.06151429 4.30397436,1.10845714 4.3735641,1.09937143 C4.37053846,1.24322857 4.47492308,1.64148571 4.57779487,2.11545714 C4.69730769,2.69542857 4.79261538,3.34505714 4.70941026,3.38745714 C4.61864103,3.42531429 4.52787179,3.19817143 4.52787179,3.19817143 C4.52484615,3.19817143 4.59594872,3.5086 4.74269231,3.65397143 C4.88489744,3.79934286 4.96810256,3.89322857 5.00441026,4.06737143 L5.02861538,4.16731429 C4.99684615,4.20517143 5.00138462,4.32631429 5.04071795,4.46562857 C5.07248718,4.43837143 5.11182051,4.42777143 5.15569231,4.4414 C5.133,4.29905714 5.08912821,4.18397143 5.04676923,4.16277143 L5.02558974,4.0598 C4.99079487,3.88262857 5.03164103,3.76754286 5.10576923,3.57825714 C5.18292308,3.39048571 5.12694872,3.07702857 5.12241026,3.07702857 Z"></path>
                                                <path d="M5.75476923,3.09822857 C5.75476923,3.09822857 5.69425641,3.33748571 5.5974359,3.32234286 C5.50515385,3.31022857 5.50969231,2.65757143 5.55053846,2.06851429 C5.58835897,1.58394286 5.63676923,1.17357143 5.61710256,1.03425714 C5.68820513,1.02971429 5.74871795,0.967628571 5.75779487,0.887371429 C5.76838462,0.793485714 5.70182051,0.7102 5.60953846,0.701114286 C5.51725641,0.692028571 5.44161538,0.760171429 5.43858974,0.855571429 C5.43707692,0.938857143 5.48851282,1.01002857 5.55810256,1.02971429 C5.52028205,1.16297143 5.51423077,1.57485714 5.48397436,2.06094286 C5.44464103,2.65605714 5.36294872,3.28297143 5.26764103,3.28902857 C5.17082051,3.31931429 5.14358974,3.074 5.14358974,3.074 C5.13905128,3.074 5.1254359,3.39957143 5.22679487,3.5616 C5.32664103,3.70697143 5.38412821,3.8902 5.37202564,4.05525714 L5.36597436,4.15822857 C5.32815385,4.16731429 5.29789744,4.27028571 5.29487179,4.41565714 C5.33571795,4.43685714 5.37505128,4.44594286 5.41589744,4.44291429 C5.43405128,4.30057143 5.41892308,4.18548571 5.38412821,4.16125714 L5.39320513,4.05828571 C5.40530769,3.88111429 5.4794359,3.763 5.60348718,3.58582857 C5.7305641,3.40865714 5.75930769,3.09822857 5.75476923,3.09822857 Z"></path>
                                                <path d="M6.33720513,3.32234286 C6.33720513,3.32234286 6.21617949,3.53585714 6.136,3.47074286 C6.06187179,3.41168571 6.22979487,2.8196 6.431,2.25174286 C6.59589744,1.79897143 6.75625641,1.41434286 6.77289744,1.27805714 C6.84551282,1.28714286 6.92266667,1.2402 6.9544359,1.16448571 C6.98771795,1.07514286 6.94535897,0.984285714 6.85761538,0.957028571 C6.76987179,0.929771429 6.67607692,0.981257143 6.64733333,1.06908571 C6.62312821,1.14631429 6.65641026,1.22657143 6.7184359,1.26291429 C6.64582051,1.38102857 6.52782051,1.77474286 6.37048718,2.23357143 C6.17230769,2.79234286 5.91815385,3.39351429 5.83041026,3.37231429 C5.73510256,3.34657143 5.77594872,3.10428571 5.77594872,3.10428571 C5.76989744,3.10125714 5.67458974,3.39654286 5.71997436,3.61308571 C5.76233333,3.82357143 5.782,3.95682857 5.723,4.12794286 L5.68820513,4.22485714 C5.64735897,4.23394286 5.59138462,4.33388571 5.54902564,4.47017143 C5.58382051,4.48834286 5.62617949,4.48834286 5.66551282,4.4944 C5.72451282,4.35205714 5.73661538,4.25211429 5.70635897,4.22788571 L5.74115385,4.13097143 C5.79864103,3.96894286 5.91664103,3.83265714 6.06489744,3.73725714 C6.22525641,3.6252 6.34023077,3.32234286 6.33720513,3.32234286 Z"></path>
                                                <path d="M6.85458974,3.6782 C6.85458974,3.6782 6.68061538,3.85234286 6.60951282,3.78117143 C6.54446154,3.71302857 6.89089744,3.15728571 7.23279487,2.67271429 C7.51417949,2.279 7.76833333,1.95645714 7.82430769,1.82622857 C7.88784615,1.85802857 7.96953846,1.8444 8.01946154,1.77928571 C8.07694872,1.70508571 8.06484615,1.59605714 7.99374359,1.537 C7.92566667,1.47491429 7.81674359,1.5052 7.76530769,1.58394286 C7.7214359,1.65511429 7.73807692,1.72931429 7.7804359,1.7914 C7.68058974,1.88074286 7.45820513,2.23205714 7.18287179,2.63182857 C6.844,3.10731429 6.4385641,3.61611429 6.34628205,3.59037143 C6.25248718,3.55857143 6.35687179,3.33294286 6.35535897,3.33294286 C6.35233333,3.33294286 6.17533333,3.59642857 6.17079487,3.80085714 C6.16474359,3.99771429 6.15717949,4.11885714 6.04825641,4.27482857 L5.98774359,4.36114286 C5.9514359,4.346 5.85612821,4.45048571 5.78048718,4.5686 C5.82889744,4.56557143 5.84402564,4.61857143 5.87428205,4.6428 C5.96505128,4.53074286 6.01497436,4.42171429 5.99984615,4.37628571 L6.06035897,4.293 C6.16474359,4.1446 6.28123077,4.0916 6.47335897,4.01134286 C6.67153846,3.9326 6.85912821,3.68122857 6.85458974,3.6782 Z"></path>
                                                <path d="M7.25397436,4.1658 C7.25094872,4.1658 7.04974359,4.27785714 7.00587179,4.19002857 C6.94687179,4.11885714 7.42189744,3.6782 7.88179487,3.30568571 C8.25848718,3.00434286 8.59282051,2.75902857 8.67753846,2.64848571 C8.73351282,2.69542857 8.82276923,2.69845714 8.88782051,2.64848571 C8.96346154,2.59245714 8.97707692,2.48948571 8.91807692,2.41831429 C8.85907692,2.34714286 8.75620513,2.33805714 8.68510256,2.40014286 C8.62307692,2.45617143 8.60946154,2.54248571 8.64425641,2.6076 C8.52020513,2.66968571 8.21310256,2.94528571 7.84094872,3.25571429 C7.3825641,3.62822857 6.85761538,4.0068 6.79710256,3.93865714 C6.73205128,3.86142857 6.86971795,3.6994 6.87728205,3.69031429 C6.87425641,3.68728571 6.62464103,3.9008 6.58228205,4.081 C6.50361538,4.29148571 6.44764103,4.42171429 6.30846154,4.5368 L6.22828205,4.60191429 C6.19046154,4.58374286 6.09212821,4.63674286 5.98623077,4.73214286 L6.06641026,4.82602857 C6.18138462,4.73971429 6.25248718,4.65491429 6.24038462,4.61554286 L6.32207692,4.55042857 C6.45671795,4.4414 6.61253846,4.399 6.81525641,4.37628571 C6.99982051,4.3672 7.257,4.16882857 7.25397436,4.1658 Z"></path>
                                                <path d="M7.5005641,4.73971429 C7.5005641,4.73971429 7.26153846,4.79574286 7.24489744,4.69882857 C7.23279487,4.60645714 7.82128205,4.30814286 8.36135897,4.07494286 C8.80612821,3.88565714 9.19492308,3.73725714 9.30384615,3.65851429 C9.34469231,3.71757143 9.41730769,3.75088571 9.49597436,3.71757143 C9.57917949,3.68728571 9.63969231,3.58128571 9.59430769,3.50102857 C9.55194872,3.41774286 9.44605128,3.38594286 9.36284615,3.42682857 C9.28871795,3.46165714 9.25694872,3.53888571 9.27661538,3.60702857 C9.1374359,3.63731429 8.76982051,3.82054286 8.32807692,4.01588571 C7.78497436,4.25211429 7.16925641,4.47774286 7.11328205,4.40354286 C7.05730769,4.32328571 7.2645641,4.18397143 7.26305128,4.18397143 C7.26153846,4.18094286 6.97561538,4.3142 6.85912821,4.48834286 C6.74415385,4.65945714 6.67002564,4.76091429 6.50512821,4.83511429 L6.41133333,4.876 C6.37048718,4.85177143 6.254,4.88205714 6.12541026,4.94717143 C6.15264103,4.97745714 6.18441026,5.00925714 6.17382051,5.05317143 C6.30846154,5.0032 6.41435897,4.93505714 6.42646154,4.89114286 L6.52025641,4.85025714 C6.68817949,4.77908571 6.80617949,4.79422857 7.00587179,4.82602857 C7.20707692,4.86085714 7.50207692,4.74274286 7.5005641,4.73971429 Z"></path>
                                                <path d="M7.60797436,5.36057143 C7.60797436,5.36057143 7.35987179,5.34845714 7.35382051,5.25154286 C7.35079487,5.15917143 7.98920513,5.03197143 8.57466667,4.95322857 C9.05574359,4.89114286 9.46723077,4.85631429 9.59733333,4.80785714 C9.62002564,4.876 9.68961538,4.92294286 9.77130769,4.91688571 C9.86510256,4.9078 9.93166667,4.82451429 9.92258974,4.73365714 C9.91351282,4.64128571 9.83030769,4.5792 9.73953846,4.59737143 C9.65935897,4.61251429 9.60035897,4.67762857 9.59128205,4.75182857 C9.45512821,4.73971429 9.04969231,4.81694286 8.56861538,4.88508571 C7.97710256,4.96837143 7.35079487,5.01228571 7.32507692,4.92294286 C7.27515385,4.8336 7.50812821,4.76091429 7.50812821,4.76091429 C7.50812821,4.75485714 7.18741026,4.80785714 7.04671795,4.94111429 C6.92871795,5.06225714 6.75776923,5.15765714 6.59287179,5.18037143 L6.49151282,5.19551429 C6.47335897,5.15765714 6.36746154,5.1516 6.22525641,5.17734286 C6.21466667,5.22125714 6.21315385,5.26365714 6.22223077,5.30151429 C6.36594872,5.2894 6.47335897,5.25457143 6.49151282,5.21217143 L6.59438462,5.20005714 C6.77138462,5.17582857 6.89846154,5.22428571 7.09815385,5.30908571 C7.29935897,5.40145714 7.60797436,5.3636 7.60797436,5.36057143 Z"></path>
                                            </g>
                                        </g>
                                        <ellipse id="Oval" fill="#D3B344" cx="5.29184615" cy="5.37268571" rx="3.1784359" ry="3.18151429"></ellipse>
                                        <g id="Group" opacity="0.8" transform="translate(1.512821, 1.514286)" fill="#FCD944">
                                            <g transform="translate(4.538462, 3.028571)" id="Shape">
                                                <polygon points="0.340384615 1.03728571 2.65046154 1.47188571 2.67466667 1.23717143 0.340384615 0.960057143"></polygon>
                                            </g>
                                            <g transform="translate(4.538462, 4.028571)" id="Shape">
                                                <polygon points="0.223897436 0.338628571 2.301 1.44102857 2.41446154 1.23205714 0.26625641 0.276542857"></polygon>
                                            </g>
                                            <g transform="translate(4.538462, 4.542857)" id="Shape">
                                                <polygon points="0.0378205128 0.0984285714 1.70192308 1.76111429 1.85320513 1.58091429 0.0832051282 0.0333142857"></polygon>
                                            </g>
                                            <g transform="translate(4.025641, 4.542857)" id="Shape">
                                                <polygon points="0.279846154 0.283171429 1.37815385 2.36228571 1.58541026 2.24871429 0.347923077 0.249857143"></polygon>
                                            </g>
                                            <g transform="translate(3.025641, 4.542857)" id="Shape">
                                                <path d="M0.977282051,0.398257143 L1.41297436,2.71057143 C1.49164103,2.70754286 1.56425641,2.67271429 1.63989744,2.65454286 L1.04838462,0.374028571 C1.02417949,0.380085714 1.00451282,0.407342857 0.977282051,0.398257143 Z"></path>
                                            </g>
                                            <g transform="translate(3.025641, 4.542857)" id="Shape">
                                                <polygon points="0.647487179 0.401285714 0.38425641 2.73782857 0.61874359 2.76054286 0.721615385 0.410371429"></polygon>
                                            </g>
                                            <g transform="translate(1.512821, 4.542857)" id="Shape">
                                                <path d="M1.84110256,0.327085714 L0.901641026,2.48342857 C0.969717949,2.52128571 1.04989744,2.53642857 1.12251282,2.56368571 L1.91371795,0.348285714 L1.84110256,0.327085714 Z"></path>
                                            </g>
                                            <g transform="translate(1.512821, 4.542857)" id="Shape">
                                                <polygon points="1.57030769 0.143857143 0.0347948718 1.92617143 0.219358974 2.0776 1.62779487 0.193828571"></polygon>
                                            </g>
                                            <g transform="translate(0.000000, 4.028571)" id="Shape">
                                                <path d="M2.86376923,0.412828571 L0.875923077,1.66665714 C0.907692308,1.73782857 0.956102564,1.80294286 1.00905128,1.862 L2.90915385,0.474914286 L2.86376923,0.412828571 Z"></path>
                                            </g>
                                            <g transform="translate(0.000000, 4.028571)" id="Shape">
                                                <polygon points="2.73971795 0.113 0.467461538 0.720228571 0.537051282 0.947371429 2.76089744 0.184171429"></polygon>
                                            </g>
                                            <g transform="translate(0.000000, 3.028571)" id="Shape">
                                                <path d="M2.69887179,0.788942857 L0.347948718,0.6996 C0.338871795,0.779857143 0.332820513,0.857085714 0.347948718,0.935828571 L2.69735897,0.861628571 C2.68525641,0.838914286 2.69130769,0.811657143 2.69887179,0.788942857 Z"></path>
                                            </g>
                                            <g transform="translate(0.000000, 2.514286)" id="Shape">
                                                <polygon points="2.76241026 0.980685714 0.543102564 0.202342857 0.472 0.429485714 2.74123077 1.05034286"></polygon>
                                            </g>
                                            <g transform="translate(0.000000, 1.514286)" id="Shape">
                                                <path d="M2.91369231,1.69297143 L1.02266667,0.293771429 C0.97274359,0.352828571 0.919794872,0.411885714 0.886512821,0.486085714 L2.86679487,1.75202857 C2.87133333,1.72628571 2.89402564,1.71114286 2.91369231,1.69297143 Z"></path>
                                            </g>
                                            <g transform="translate(1.512821, 1.000000)" id="Shape">
                                                <polygon points="1.63384615 1.97405714 0.236 0.0812 0.0529487179 0.231114286 1.57484615 2.02402857"></polygon>
                                            </g>
                                            <g transform="translate(1.512821, 0.000000)" id="Shape">
                                                <polygon points="1.92128205 2.82262857 1.14671795 0.601171429 0.921307692 0.675371429 1.84715385 2.8408"></polygon>
                                            </g>
                                            <g transform="translate(3.025641, 0.000000)" id="Shape">
                                                <polygon points="0.729179487 2.76054286 0.641435897 0.410371429 0.408461538 0.430057143 0.653538462 2.77265714"></polygon>
                                            </g>
                                            <g transform="translate(3.025641, 0.000000)" id="Shape">
                                                <polygon points="1.0544359 2.79991429 1.66410256 0.525457143 1.43415385 0.463371429 0.983333333 2.77265714"></polygon>
                                            </g>
                                            <g transform="translate(4.025641, 0.000000)" id="Shape">
                                                <polygon points="0.353974359 2.92711429 1.60658974 0.9328 1.39933333 0.820742857 0.285897436 2.8938"></polygon>
                                            </g>
                                            <g transform="translate(4.538462, 1.000000)" id="Shape">
                                                <polygon points="0.0862307692 2.14517143 1.86682051 0.609685714 1.71705128 0.426457143 0.0423589744 2.08005714"></polygon>
                                            </g>
                                            <g transform="translate(4.538462, 1.514286)" id="Shape">
                                                <polygon points="0.269282051 1.90345714 2.42353846 0.960057143 2.31158974 0.7526 0.226923077 1.83834286"></polygon>
                                            </g>
                                            <g transform="translate(4.538462, 3.028571)" id="Shape">
                                                <polygon points="0.340384615 0.705657143 2.67769231 0.4452 2.65348718 0.208971429 0.340384615 0.628428571"></polygon>
                                            </g>
                                        </g>
                                        <ellipse id="Oval" fill="#362C38" cx="5.29184615" cy="5.37268571" rx="1.66107692" ry="1.66268571"></ellipse>
                                        <ellipse id="Oval" fill="#D3D0D4" cx="4.73966667" cy="4.7276" rx="1" ry="1"></ellipse>
                                    </g>
                                </g>
                            </g>
                        </g>
                        <g id="play-button_41_-Clipped" transform="translate(15.000000, 19.000000)" fill-rule="nonzero" fill="#FFFFFF">
                            <g id="play-button_41_" transform="translate(0.933333, 2.052632)">
                                <path d="M9.71186667,6.28994737 L9.71186667,16.7268947 C9.71186667,16.7268947 9.787,17.3923684 10.6180667,17.1725789 L19.8579333,11.9892105 C19.8579333,11.9892105 20.7641333,11.397 19.8579333,10.8047895 L10.7714,5.69621053 C10.7698667,5.69468421 9.71186667,5.25357895 9.71186667,6.28994737 Z" id="Shape"></path>
                            </g>
                        </g>
                    </g>
                    <g id="Group-3" transform="translate(1.000000, 6.000000)" fill-rule="nonzero">
                        <g id="Group" transform="translate(26.000000, 15.000000)" fill="#0080C5">
                            <polygon id="Shape" points="7.559375 11.46 3.6515625 11.46 3.6515625 3.72 0.25625 3.72 0.25625 0.54 11.01875 0.54 11.01875 3.72 7.6234375 3.72 7.6234375 11.46"></polygon>
                            <polygon id="Shape" points="19.603125 11.46 19.603125 7.8 16.3359375 7.8 16.3359375 11.46 12.428125 11.46 12.428125 0.54 16.3359375 0.54 16.3359375 4.56 19.603125 4.56 19.603125 0.54 23.5109375 0.54 23.5109375 11.46"></polygon>
                            <polygon id="Shape" points="29.1484375 11.46 25.240625 11.46 25.240625 0.54 29.1484375 0.54"></polygon>
                            <path d="M39.975,4.2 C37.9890625,3.66 36.771875,3.42 35.8109375,3.42 C35.234375,3.42 34.9140625,3.54 34.9140625,3.84 C34.9140625,4.26 35.490625,4.26 36.771875,4.56 C38.821875,5.04 40.74375,5.76 40.74375,8.1 C40.74375,10.32 38.95,11.7 35.746875,11.7 C33.8890625,11.7 31.9671875,11.28 30.0453125,10.68 L30.878125,7.62 C32.928125,8.22 34.3375,8.58 35.1703125,8.58 C36.0671875,8.64 36.1953125,8.28 36.1953125,8.16 C36.1953125,7.8 35.490625,7.68 34.4015625,7.44 C31.7109375,6.84 30.49375,6.12 30.49375,4.08 C30.49375,1.62 32.3515625,0.3 35.61875,0.3 C37.028125,0.3 39.0140625,0.54 40.615625,1.02 L39.975,4.2 Z" id="Shape"></path>
                        </g>
                        <g id="Group" transform="translate(15.000000, 0.000000)" fill="#FFFFFF">
                            <path d="M4.88292683,8.7 L4.12195122,8.7 L4.12195122,11.28 L0.253658537,11.28 L0.253658537,0.36 C2.15609756,0.3 3.61463415,0.24 5.32682927,0.24 C8.62439024,0.24 10.4634146,1.68 10.4634146,4.32 C10.4634146,5.76 9.95609756,6.9 8.94146341,7.68 L11.2243902,11.28 L6.72195122,11.28 L5.26341463,8.7 L4.88292683,8.7 L4.88292683,8.7 Z M4.94634146,5.76 C5.96097561,5.76 6.46829268,5.28 6.46829268,4.5 C6.46829268,3.72 6.02439024,3.3 4.94634146,3.3 L4.12195122,3.3 L4.12195122,5.76 L4.94634146,5.76 Z" id="Shape"></path>
                            <polygon id="Shape" points="15.5365854 11.28 11.6682927 11.28 11.6682927 0.36 15.5365854 0.36"></polygon>
                            <path d="M27.9658537,10.44 C25.4926829,11.22 23.9073171,11.52 22.7658537,11.52 C18.9609756,11.52 16.3609756,9.24 16.3609756,5.82 C16.3609756,2.4 18.7707317,0.12 22.4487805,0.12 C24.4780488,0.12 26,0.42 27.395122,0.72 L26.8243902,3.84 C24.9853659,3.54 24.097561,3.48 22.8926829,3.48 C21.4341463,3.48 20.4829268,4.44 20.4829268,5.82 C20.4829268,7.2 21.4341463,8.16 22.8926829,8.16 C23.7170732,8.16 24.4780488,8.04 25.1121951,7.92 L25.1121951,7.32 L22.195122,7.32 L22.195122,4.68 L28.0292683,4.68 L27.9658537,10.44 L27.9658537,10.44 Z" id="Shape"></path>
                            <polygon id="Shape" points="36.3365854 11.28 36.3365854 7.62 33.102439 7.62 33.102439 11.28 29.2341463 11.28 29.2341463 0.36 33.102439 0.36 33.102439 4.38 36.3365854 4.38 36.3365854 0.36 40.204878 0.36 40.204878 11.28"></polygon>
                            <polygon id="Shape" points="48.2585366 11.28 44.3902439 11.28 44.3902439 3.54 41.0292683 3.54 41.0292683 0.36 51.6829268 0.36 51.6829268 3.54 48.3219512 3.54"></polygon>
                        </g>
                        <g id="Group" transform="translate(15.000000, 31.000000)" fill="#FFFFFF">
                            <polygon id="Shape" points="4.12195122 11.5578947 0.253658537 11.5578947 0.253658537 0.126315789 4.12195122 0.126315789"></polygon>
                            <polygon id="Shape" points="16.9317073 11.5578947 13.5073171 11.5578947 9.51219512 6.69473684 9.51219512 11.6210526 5.64390244 11.6210526 5.64390244 0.126315789 9.19512195 0.126315789 13 5.05263158 13 0.126315789 16.8682927 0.126315789 16.9317073 11.5578947"></polygon>
                            <path d="M29.4878049,6 C29.4878049,9.72631579 27.4585366,11.8105263 23.9073171,11.8105263 C20.3560976,11.8105263 18.3268293,9.72631579 18.3268293,6 L18.3268293,0.126315789 L22.2585366,0.126315789 L22.2585366,6.06315789 C22.2585366,7.45263158 22.8292683,8.21052632 23.8439024,8.21052632 C24.8585366,8.21052632 25.4292683,7.45263158 25.4292683,6.06315789 L25.4292683,0.126315789 L29.3609756,0.126315789 L29.3609756,6 L29.4878049,6 Z" id="Shape"></path>
                            <polygon id="Shape" points="37.9853659 11.5578947 34.1170732 11.5578947 34.1170732 3.47368421 30.7560976 3.47368421 30.7560976 0.126315789 41.4097561 0.126315789 41.4097561 3.47368421 38.0487805 3.47368421"></polygon>
                            <polygon id="Shape" points="50.8585366 4.29473684 50.8585366 7.32631579 46.5463415 7.32631579 46.5463415 8.33684211 51.6829268 8.33684211 51.6829268 11.5578947 42.6146341 11.5578947 42.6146341 0.126315789 51.6195122 0.126315789 51.6195122 3.28421053 46.4829268 3.28421053 46.4829268 4.29473684"></polygon>
                        </g>
                        <polygon id="Shape" fill="#FFFFFF" points="8.12903226 42 5.87096774 42 3.61290323 38.1318681 3.61290323 41.9395604 0 41.9395604 0 31 3.5483871 31 7.03225806 36.6208791 10.3870968 31 14 31 14 42 10.3870968 42 10.3870968 38.1923077"></polygon>
                    </g>
                </g>
            </g>
        </g>
    </g>
</svg>