<?xml version="1.0" encoding="UTF-8"?>
<svg width="18px" height="56px" viewBox="0 0 18 56" version="1.1" xmlns="http://www.w3.org/2000/svg" xmlns:xlink="http://www.w3.org/1999/xlink">
    <!-- Generator: Sketch 46 (44423) - http://www.bohemiancoding.com/sketch -->
    <title>slanted bg</title>
    <desc>Created with Sketch.</desc>
    <defs>
        <rect id="path-1" x="0" y="0" width="320" height="56"></rect>
        <rect id="path-3" x="-32.7085103" y="72" width="165" height="4"></rect>
        <rect id="path-5" x="-32.7085103" y="72" width="165" height="4"></rect>
        <rect id="path-7" x="-32.7085103" y="72" width="165" height="4"></rect>
        <rect id="path-9" x="-32.7085103" y="72" width="165" height="4"></rect>
        <rect id="path-11" x="-32.7085103" y="72" width="165" height="4"></rect>
        <rect id="path-13" x="-32.7085103" y="72" width="165" height="4"></rect>
        <rect id="path-15" x="-32.7085103" y="72" width="165" height="4"></rect>
        <rect id="path-17" x="-32.7085103" y="72" width="165" height="4"></rect>
        <rect id="path-19" x="-32.7085103" y="72" width="165" height="4"></rect>
        <rect id="path-21" x="-32.7085103" y="72" width="165" height="4"></rect>
        <rect id="path-23" x="-32.7085103" y="72" width="165" height="4"></rect>
        <rect id="path-25" x="-32.7085103" y="72" width="165" height="4"></rect>
        <rect id="path-27" x="-32.7085103" y="72" width="165" height="4"></rect>
        <rect id="path-29" x="-32.7085103" y="72" width="165" height="4"></rect>
        <rect id="path-31" x="-32.7085103" y="72" width="165" height="4"></rect>
    </defs>
    <g id="Exports" stroke="none" stroke-width="1" fill="none" fill-rule="evenodd">
        <g id="slanted-bg" transform="translate(-179.000000, 0.000000)">
            <g id="bg">
                <mask id="mask-2" fill="white">
                    <use xlink:href="#path-1"></use>
                </mask>
                <use id="Mask" fill="#FFFFFF" xlink:href="#path-1"></use>
                <rect id="Rectangle-2" fill="#333333" mask="url(#mask-2)" x="0" y="0" width="320" height="55"></rect>
                <g id="slants" mask="url(#mask-2)">
                    <g transform="translate(31.000000, -37.000000)" id="Slants">
                        <g transform="translate(18.000000, 0.000000)">
                            <rect id="Rectangle-3" fill="#57BDEA" fill-rule="evenodd" transform="translate(46.791490, 72.000000) rotate(-56.000000) translate(-46.791490, -72.000000) " x="-35.7085103" y="70" width="165" height="4"></rect>
                            <rect id="Rectangle-3-Copy-3" fill="#FF7BB2" fill-rule="evenodd" transform="translate(55.791490, 78.000000) rotate(-56.000000) translate(-55.791490, -78.000000) " x="-26.7085103" y="76" width="165" height="4"></rect>
                            <rect id="Rectangle-3-Copy-2" fill="#FAA71B" fill-rule="evenodd" transform="translate(52.791490, 76.000000) rotate(-56.000000) translate(-52.791490, -76.000000) " x="-29.7085103" y="74" width="165" height="4"></rect>
                            <mask id="mask-4" fill="white">
                                <use xlink:href="#path-3"></use>
                            </mask>
                            <use id="Rectangle-3-Copy" fill="#0080C5" fill-rule="evenodd" transform="translate(49.791490, 74.000000) rotate(-56.000000) translate(-49.791490, -74.000000) " xlink:href="#path-3"></use>
                        </g>
                        <g transform="translate(86.000000, 4.000000)">
                            <rect id="Rectangle-3" fill="#57BDEA" fill-rule="evenodd" transform="translate(46.791490, 72.000000) rotate(-56.000000) translate(-46.791490, -72.000000) " x="-35.7085103" y="70" width="165" height="4"></rect>
                            <rect id="Rectangle-3-Copy-3" fill="#FF7BB2" fill-rule="evenodd" transform="translate(55.791490, 78.000000) rotate(-56.000000) translate(-55.791490, -78.000000) " x="-26.7085103" y="76" width="165" height="4"></rect>
                            <rect id="Rectangle-3-Copy-2" fill="#FAA71B" fill-rule="evenodd" transform="translate(52.791490, 76.000000) rotate(-56.000000) translate(-52.791490, -76.000000) " x="-29.7085103" y="74" width="165" height="4"></rect>
                            <mask id="mask-6" fill="white">
                                <use xlink:href="#path-5"></use>
                            </mask>
                            <use id="Rectangle-3-Copy" fill="#0080C5" fill-rule="evenodd" transform="translate(49.791490, 74.000000) rotate(-56.000000) translate(-49.791490, -74.000000) " xlink:href="#path-5"></use>
                        </g>
                        <g transform="translate(154.000000, 8.000000)">
                            <rect id="Rectangle-3" fill="#57BDEA" fill-rule="evenodd" transform="translate(46.791490, 72.000000) rotate(-56.000000) translate(-46.791490, -72.000000) " x="-35.7085103" y="70" width="165" height="4"></rect>
                            <rect id="Rectangle-3-Copy-3" fill="#FF7BB2" fill-rule="evenodd" transform="translate(55.791490, 78.000000) rotate(-56.000000) translate(-55.791490, -78.000000) " x="-26.7085103" y="76" width="165" height="4"></rect>
                            <rect id="Rectangle-3-Copy-2" fill="#FAA71B" fill-rule="evenodd" transform="translate(52.791490, 76.000000) rotate(-56.000000) translate(-52.791490, -76.000000) " x="-29.7085103" y="74" width="165" height="4"></rect>
                            <mask id="mask-8" fill="white">
                                <use xlink:href="#path-7"></use>
                            </mask>
                            <use id="Rectangle-3-Copy" fill="#0080C5" fill-rule="evenodd" transform="translate(49.791490, 74.000000) rotate(-56.000000) translate(-49.791490, -74.000000) " xlink:href="#path-7"></use>
                        </g>
                        <g transform="translate(33.000000, 4.000000)">
                            <rect id="Rectangle-3" fill="#57BDEA" fill-rule="evenodd" transform="translate(46.791490, 72.000000) rotate(-56.000000) translate(-46.791490, -72.000000) " x="-35.7085103" y="70" width="165" height="4"></rect>
                            <rect id="Rectangle-3-Copy-3" fill="#FF7BB2" fill-rule="evenodd" transform="translate(55.791490, 78.000000) rotate(-56.000000) translate(-55.791490, -78.000000) " x="-26.7085103" y="76" width="165" height="4"></rect>
                            <rect id="Rectangle-3-Copy-2" fill="#FAA71B" fill-rule="evenodd" transform="translate(52.791490, 76.000000) rotate(-56.000000) translate(-52.791490, -76.000000) " x="-29.7085103" y="74" width="165" height="4"></rect>
                            <mask id="mask-10" fill="white">
                                <use xlink:href="#path-9"></use>
                            </mask>
                            <use id="Rectangle-3-Copy" fill="#0080C5" fill-rule="evenodd" transform="translate(49.791490, 74.000000) rotate(-56.000000) translate(-49.791490, -74.000000) " xlink:href="#path-9"></use>
                        </g>
                        <g transform="translate(101.000000, 8.000000)">
                            <rect id="Rectangle-3" fill="#57BDEA" fill-rule="evenodd" transform="translate(46.791490, 72.000000) rotate(-56.000000) translate(-46.791490, -72.000000) " x="-35.7085103" y="70" width="165" height="4"></rect>
                            <rect id="Rectangle-3-Copy-3" fill="#FF7BB2" fill-rule="evenodd" transform="translate(55.791490, 78.000000) rotate(-56.000000) translate(-55.791490, -78.000000) " x="-26.7085103" y="76" width="165" height="4"></rect>
                            <rect id="Rectangle-3-Copy-2" fill="#FAA71B" fill-rule="evenodd" transform="translate(52.791490, 76.000000) rotate(-56.000000) translate(-52.791490, -76.000000) " x="-29.7085103" y="74" width="165" height="4"></rect>
                            <mask id="mask-12" fill="white">
                                <use xlink:href="#path-11"></use>
                            </mask>
                            <use id="Rectangle-3-Copy" fill="#0080C5" fill-rule="evenodd" transform="translate(49.791490, 74.000000) rotate(-56.000000) translate(-49.791490, -74.000000) " xlink:href="#path-11"></use>
                        </g>
                        <g transform="translate(169.000000, 12.000000)">
                            <rect id="Rectangle-3" fill="#57BDEA" fill-rule="evenodd" transform="translate(46.791490, 72.000000) rotate(-56.000000) translate(-46.791490, -72.000000) " x="-35.7085103" y="70" width="165" height="4"></rect>
                            <rect id="Rectangle-3-Copy-3" fill="#FF7BB2" fill-rule="evenodd" transform="translate(55.791490, 78.000000) rotate(-56.000000) translate(-55.791490, -78.000000) " x="-26.7085103" y="76" width="165" height="4"></rect>
                            <rect id="Rectangle-3-Copy-2" fill="#FAA71B" fill-rule="evenodd" transform="translate(52.791490, 76.000000) rotate(-56.000000) translate(-52.791490, -76.000000) " x="-29.7085103" y="74" width="165" height="4"></rect>
                            <mask id="mask-14" fill="white">
                                <use xlink:href="#path-13"></use>
                            </mask>
                            <use id="Rectangle-3-Copy" fill="#0080C5" fill-rule="evenodd" transform="translate(49.791490, 74.000000) rotate(-56.000000) translate(-49.791490, -74.000000) " xlink:href="#path-13"></use>
                        </g>
                        <g transform="translate(51.000000, 4.000000)">
                            <rect id="Rectangle-3" fill="#57BDEA" fill-rule="evenodd" transform="translate(46.791490, 72.000000) rotate(-56.000000) translate(-46.791490, -72.000000) " x="-35.7085103" y="70" width="165" height="4"></rect>
                            <rect id="Rectangle-3-Copy-3" fill="#FF7BB2" fill-rule="evenodd" transform="translate(55.791490, 78.000000) rotate(-56.000000) translate(-55.791490, -78.000000) " x="-26.7085103" y="76" width="165" height="4"></rect>
                            <rect id="Rectangle-3-Copy-2" fill="#FAA71B" fill-rule="evenodd" transform="translate(52.791490, 76.000000) rotate(-56.000000) translate(-52.791490, -76.000000) " x="-29.7085103" y="74" width="165" height="4"></rect>
                            <mask id="mask-16" fill="white">
                                <use xlink:href="#path-15"></use>
                            </mask>
                            <use id="Rectangle-3-Copy" fill="#0080C5" fill-rule="evenodd" transform="translate(49.791490, 74.000000) rotate(-56.000000) translate(-49.791490, -74.000000) " xlink:href="#path-15"></use>
                        </g>
                        <g transform="translate(119.000000, 8.000000)">
                            <rect id="Rectangle-3" fill="#57BDEA" fill-rule="evenodd" transform="translate(46.791490, 72.000000) rotate(-56.000000) translate(-46.791490, -72.000000) " x="-35.7085103" y="70" width="165" height="4"></rect>
                            <rect id="Rectangle-3-Copy-3" fill="#FF7BB2" fill-rule="evenodd" transform="translate(55.791490, 78.000000) rotate(-56.000000) translate(-55.791490, -78.000000) " x="-26.7085103" y="76" width="165" height="4"></rect>
                            <rect id="Rectangle-3-Copy-2" fill="#FAA71B" fill-rule="evenodd" transform="translate(52.791490, 76.000000) rotate(-56.000000) translate(-52.791490, -76.000000) " x="-29.7085103" y="74" width="165" height="4"></rect>
                            <mask id="mask-18" fill="white">
                                <use xlink:href="#path-17"></use>
                            </mask>
                            <use id="Rectangle-3-Copy" fill="#0080C5" fill-rule="evenodd" transform="translate(49.791490, 74.000000) rotate(-56.000000) translate(-49.791490, -74.000000) " xlink:href="#path-17"></use>
                        </g>
                        <g transform="translate(187.000000, 12.000000)">
                            <rect id="Rectangle-3" fill="#57BDEA" fill-rule="evenodd" transform="translate(46.791490, 72.000000) rotate(-56.000000) translate(-46.791490, -72.000000) " x="-35.7085103" y="70" width="165" height="4"></rect>
                            <rect id="Rectangle-3-Copy-3" fill="#FF7BB2" fill-rule="evenodd" transform="translate(55.791490, 78.000000) rotate(-56.000000) translate(-55.791490, -78.000000) " x="-26.7085103" y="76" width="165" height="4"></rect>
                            <rect id="Rectangle-3-Copy-2" fill="#FAA71B" fill-rule="evenodd" transform="translate(52.791490, 76.000000) rotate(-56.000000) translate(-52.791490, -76.000000) " x="-29.7085103" y="74" width="165" height="4"></rect>
                            <mask id="mask-20" fill="white">
                                <use xlink:href="#path-19"></use>
                            </mask>
                            <use id="Rectangle-3-Copy" fill="#0080C5" fill-rule="evenodd" transform="translate(49.791490, 74.000000) rotate(-56.000000) translate(-49.791490, -74.000000) " xlink:href="#path-19"></use>
                        </g>
                        <g transform="translate(69.000000, 4.000000)">
                            <rect id="Rectangle-3" fill="#57BDEA" fill-rule="evenodd" transform="translate(46.791490, 72.000000) rotate(-56.000000) translate(-46.791490, -72.000000) " x="-35.7085103" y="70" width="165" height="4"></rect>
                            <rect id="Rectangle-3-Copy-3" fill="#FF7BB2" fill-rule="evenodd" transform="translate(55.791490, 78.000000) rotate(-56.000000) translate(-55.791490, -78.000000) " x="-26.7085103" y="76" width="165" height="4"></rect>
                            <rect id="Rectangle-3-Copy-2" fill="#FAA71B" fill-rule="evenodd" transform="translate(52.791490, 76.000000) rotate(-56.000000) translate(-52.791490, -76.000000) " x="-29.7085103" y="74" width="165" height="4"></rect>
                            <mask id="mask-22" fill="white">
                                <use xlink:href="#path-21"></use>
                            </mask>
                            <use id="Rectangle-3-Copy" fill="#0080C5" fill-rule="evenodd" transform="translate(49.791490, 74.000000) rotate(-56.000000) translate(-49.791490, -74.000000) " xlink:href="#path-21"></use>
                        </g>
                        <g>
                            <rect id="Rectangle-3" fill="#57BDEA" fill-rule="evenodd" transform="translate(46.791490, 72.000000) rotate(-56.000000) translate(-46.791490, -72.000000) " x="-35.7085103" y="70" width="165" height="4"></rect>
                            <rect id="Rectangle-3-Copy-3" fill="#FF7BB2" fill-rule="evenodd" transform="translate(55.791490, 78.000000) rotate(-56.000000) translate(-55.791490, -78.000000) " x="-26.7085103" y="76" width="165" height="4"></rect>
                            <rect id="Rectangle-3-Copy-2" fill="#FAA71B" fill-rule="evenodd" transform="translate(52.791490, 76.000000) rotate(-56.000000) translate(-52.791490, -76.000000) " x="-29.7085103" y="74" width="165" height="4"></rect>
                            <mask id="mask-24" fill="white">
                                <use xlink:href="#path-23"></use>
                            </mask>
                            <use id="Rectangle-3-Copy" fill="#0080C5" fill-rule="evenodd" transform="translate(49.791490, 74.000000) rotate(-56.000000) translate(-49.791490, -74.000000) " xlink:href="#path-23"></use>
                        </g>
                        <g transform="translate(137.000000, 8.000000)">
                            <rect id="Rectangle-3" fill="#57BDEA" fill-rule="evenodd" transform="translate(46.791490, 72.000000) rotate(-56.000000) translate(-46.791490, -72.000000) " x="-35.7085103" y="70" width="165" height="4"></rect>
                            <rect id="Rectangle-3-Copy-3" fill="#FF7BB2" fill-rule="evenodd" transform="translate(55.791490, 78.000000) rotate(-56.000000) translate(-55.791490, -78.000000) " x="-26.7085103" y="76" width="165" height="4"></rect>
                            <rect id="Rectangle-3-Copy-2" fill="#FAA71B" fill-rule="evenodd" transform="translate(52.791490, 76.000000) rotate(-56.000000) translate(-52.791490, -76.000000) " x="-29.7085103" y="74" width="165" height="4"></rect>
                            <mask id="mask-26" fill="white">
                                <use xlink:href="#path-25"></use>
                            </mask>
                            <use id="Rectangle-3-Copy" fill="#0080C5" fill-rule="evenodd" transform="translate(49.791490, 74.000000) rotate(-56.000000) translate(-49.791490, -74.000000) " xlink:href="#path-25"></use>
                        </g>
                        <g transform="translate(205.000000, 12.000000)">
                            <rect id="Rectangle-3" fill="#57BDEA" fill-rule="evenodd" transform="translate(46.791490, 72.000000) rotate(-56.000000) translate(-46.791490, -72.000000) " x="-35.7085103" y="70" width="165" height="4"></rect>
                            <rect id="Rectangle-3-Copy-3" fill="#FF7BB2" fill-rule="evenodd" transform="translate(55.791490, 78.000000) rotate(-56.000000) translate(-55.791490, -78.000000) " x="-26.7085103" y="76" width="165" height="4"></rect>
                            <rect id="Rectangle-3-Copy-2" fill="#FAA71B" fill-rule="evenodd" transform="translate(52.791490, 76.000000) rotate(-56.000000) translate(-52.791490, -76.000000) " x="-29.7085103" y="74" width="165" height="4"></rect>
                            <mask id="mask-28" fill="white">
                                <use xlink:href="#path-27"></use>
                            </mask>
                            <use id="Rectangle-3-Copy" fill="#0080C5" fill-rule="evenodd" transform="translate(49.791490, 74.000000) rotate(-56.000000) translate(-49.791490, -74.000000) " xlink:href="#path-27"></use>
                        </g>
                        <g transform="translate(223.000000, 12.000000)">
                            <rect id="Rectangle-3" fill="#57BDEA" fill-rule="evenodd" transform="translate(46.791490, 72.000000) rotate(-56.000000) translate(-46.791490, -72.000000) " x="-35.7085103" y="70" width="165" height="4"></rect>
                            <rect id="Rectangle-3-Copy-3" fill="#FF7BB2" fill-rule="evenodd" transform="translate(55.791490, 78.000000) rotate(-56.000000) translate(-55.791490, -78.000000) " x="-26.7085103" y="76" width="165" height="4"></rect>
                            <rect id="Rectangle-3-Copy-2" fill="#FAA71B" fill-rule="evenodd" transform="translate(52.791490, 76.000000) rotate(-56.000000) translate(-52.791490, -76.000000) " x="-29.7085103" y="74" width="165" height="4"></rect>
                            <mask id="mask-30" fill="white">
                                <use xlink:href="#path-29"></use>
                            </mask>
                            <use id="Rectangle-3-Copy" fill="#0080C5" fill-rule="evenodd" transform="translate(49.791490, 74.000000) rotate(-56.000000) translate(-49.791490, -74.000000) " xlink:href="#path-29"></use>
                        </g>
                        <g transform="translate(241.000000, 12.000000)">
                            <rect id="Rectangle-3" fill="#57BDEA" fill-rule="evenodd" transform="translate(46.791490, 72.000000) rotate(-56.000000) translate(-46.791490, -72.000000) " x="-35.7085103" y="70" width="165" height="4"></rect>
                            <rect id="Rectangle-3-Copy-3" fill="#FF7BB2" fill-rule="evenodd" transform="translate(55.791490, 78.000000) rotate(-56.000000) translate(-55.791490, -78.000000) " x="-26.7085103" y="76" width="165" height="4"></rect>
                            <rect id="Rectangle-3-Copy-2" fill="#FAA71B" fill-rule="evenodd" transform="translate(52.791490, 76.000000) rotate(-56.000000) translate(-52.791490, -76.000000) " x="-29.7085103" y="74" width="165" height="4"></rect>
                            <mask id="mask-32" fill="white">
                                <use xlink:href="#path-31"></use>
                            </mask>
                            <use id="Rectangle-3-Copy" fill="#0080C5" fill-rule="evenodd" transform="translate(49.791490, 74.000000) rotate(-56.000000) translate(-49.791490, -74.000000) " xlink:href="#path-31"></use>
                        </g>
                    </g>
                </g>
            </g>
        </g>
    </g>
</svg>