<?xml version="1.0" encoding="UTF-8"?>
<svg width="104px" height="67px" viewBox="0 0 104 67" version="1.1" xmlns="http://www.w3.org/2000/svg" xmlns:xlink="http://www.w3.org/1999/xlink">
    <!-- Generator: Sketch 46.2 (44496) - http://www.bohemiancoding.com/sketch -->
    <title>patterns</title>
    <desc>Created with Sketch.</desc>
    <defs></defs>
    <g id="Welcome" stroke="none" stroke-width="1" fill="none" fill-rule="evenodd" opacity="0.783401268">
        <g id="Desktop" stroke="#0080C5">
            <g id="patterns" transform="translate(-20.000000, -28.000000)">
                <polygon id="Triangle-4" fill="#FFFFFF" opacity="0.197973279" transform="translate(41.000000, 40.500000) rotate(40.000000) translate(-41.000000, -40.500000) " points="41 14 71 67 11 67"></polygon>
                <polygon id="Triangle-4" fill="#EBEBEB" opacity="0.307348279" transform="translate(62.000000, 40.500000) rotate(100.000000) translate(-62.000000, -40.500000) " points="62 14 92 67 32 67"></polygon>
                <polygon id="Triangle-4" fill="#E4F7FF" opacity="0.428045743" transform="translate(63.000000, 40.500000) rotate(270.000000) translate(-63.000000, -40.500000) " points="63 14 93 67 33 67"></polygon>
                <polygon id="Triangle-4" fill="#FFFFFA" opacity="0.213768116" transform="translate(86.000000, 43.500000) rotate(340.000000) translate(-86.000000, -43.500000) " points="86 17 116 70 56 70"></polygon>
                <polygon id="Triangle-4" fill="#FFFFFF" opacity="0.274116848" transform="translate(69.500000, 73.500000) rotate(261.000000) translate(-69.500000, -73.500000) " points="69.5 52 94 95 45 95"></polygon>
                <polygon id="Triangle-4" fill="#FFFFFF" opacity="0.217957428" transform="translate(48.234359, 70.876396) rotate(-29.000000) translate(-48.234359, -70.876396) " points="48.2343595 54.7185065 66.6468382 87.0342855 29.8218807 87.0342855"></polygon>
            </g>
        </g>
    </g>
</svg>